RobotoSerifTextWide-HairlineWidth730.ufo
<glyph name="exclam" format="2">
  <advance width="243.7564"/>
  <unicode hex="0021"/>
  <outline>
    <contour>
      <point x="147.582" y="735.0" type="line"/>
      <point x="147.582" y="544.322"/>
      <point x="136.812" y="430.92"/>
      <point x="136.812" y="172.024" type="curve"/>
      <point x="106.9444" y="172.024" type="line"/>
      <point x="106.9444" y="430.92"/>
      <point x="96.0916" y="543.322"/>
      <point x="96.0916" y="735.0" type="curve"/>
    </contour>
    <component base="period" xOffset="23.146800000000006"/>
  </outline>
</glyph>
<glyph name="numbersign" format="2">
  <advance width="729.2828000000001"/>
  <unicode hex="0023"/>
  <outline>
    <contour>
      <point x="110.4808" y="0.0" type="line"/>
      <point x="141.272" y="0.0" type="line"/>
      <point x="380.924" y="750.0" type="line"/>
      <point x="350.05" y="750.0" type="line"/>
    </contour>
    <contour>
      <point x="56.264399999999995" y="259.31" type="line"/>
      <point x="640.7736" y="259.31" type="line"/>
      <point x="640.7736" y="300.69" type="line"/>
      <point x="56.264399999999995" y="300.69" type="line"/>
    </contour>
    <contour>
      <point x="110.5812" y="469.31" type="line"/>
      <point x="694.6304" y="469.31" type="line"/>
      <point x="694.6304" y="510.69" type="line"/>
      <point x="110.5812" y="510.69" type="line"/>
    </contour>
    <contour>
      <point x="348.6376" y="0.0" type="line"/>
      <point x="379.9716" y="0.0" type="line"/>
      <point x="619.6236" y="750.0" type="line"/>
      <point x="586.2067999999999" y="750.0" type="line"/>
    </contour>
  </outline>
</glyph>
<glyph name="eight" format="2">
  <advance width="650.1600000000001"/>
  <unicode hex="0038"/>
  <outline>
    <contour>
      <point x="325.08000000000004" y="21.38" type="curve" smooth="yes"/>
      <point x="202.7812" y="21.38"/>
      <point x="105.7088" y="88.966"/>
      <point x="105.7088" y="197.0" type="curve" smooth="yes"/>
      <point x="105.7088" y="299.632"/>
      <point x="202.7812" y="360.356"/>
      <point x="325.08000000000004" y="360.356" type="curve" smooth="yes"/>
      <point x="447.37879999999996" y="360.356"/>
      <point x="544.4512" y="299.632"/>
      <point x="544.4512" y="197.0" type="curve" smooth="yes"/>
      <point x="544.4512" y="88.966"/>
      <point x="447.37879999999996" y="21.38"/>
    </contour>
    <contour>
      <point x="325.08000000000004" y="-10.0" type="curve" smooth="yes"/>
      <point x="466.9556" y="-10.0"/>
      <point x="588.2239999999999" y="72.092"/>
      <point x="588.2239999999999" y="192.0" type="curve" smooth="yes"/>
      <point x="588.2239999999999" y="312.046"/>
      <point x="462.5784" y="387.046"/>
      <point x="325.08000000000004" y="387.046" type="curve" smooth="yes"/>
      <point x="187.58159999999998" y="387.046"/>
      <point x="61.936" y="312.046"/>
      <point x="61.936" y="192.0" type="curve" smooth="yes"/>
      <point x="61.936" y="72.092"/>
      <point x="183.2044" y="-10.0"/>
    </contour>
    <contour>
      <point x="325.08000000000004" y="391.644" type="curve" smooth="yes"/>
      <point x="228.13146143769598" y="391.644"/>
      <point x="144.56" y="447.368"/>
      <point x="144.56" y="537.77" type="curve" smooth="yes"/>
      <point x="144.56" y="630.034"/>
      <point x="221.6849856214144" y="688.62"/>
      <point x="325.08000000000004" y="688.62" type="curve" smooth="yes"/>
      <point x="428.47501437858557" y="688.62"/>
      <point x="505.6" y="630.034"/>
      <point x="505.6" y="537.77" type="curve" smooth="yes"/>
      <point x="505.6" y="447.368"/>
      <point x="422.028538562304" y="391.644"/>
    </contour>
    <contour>
      <point x="325.08000000000004" y="368.046" type="curve" smooth="yes"/>
      <point x="441.7356" y="368.046"/>
      <point x="548.0352" y="435.046"/>
      <point x="548.0352" y="543.0" type="curve" smooth="yes"/>
      <point x="548.0352" y="647.954"/>
      <point x="441.769569230748" y="720.0"/>
      <point x="325.08000000000004" y="720.0" type="curve" smooth="yes"/>
      <point x="208.39043076925202" y="720.0"/>
      <point x="102.1248" y="647.954"/>
      <point x="102.1248" y="543.0" type="curve" smooth="yes"/>
      <point x="102.1248" y="435.046"/>
      <point x="208.4244" y="368.046"/>
    </contour>
  </outline>
</glyph>
<glyph name="nine" format="2">
  <advance width="650.1600000000001"/>
  <unicode hex="0039"/>
  <outline>
    <contour>
      <point x="109.5112" y="-61.62" type="line"/>
      <point x="372.16025803584796" y="-44.7840255160664"/>
      <point x="546.2028" y="105.54"/>
      <point x="546.2028" y="335.804" type="curve" smooth="yes"/>
      <point x="546.2028" y="504.402"/>
      <point x="454.3752" y="587.62"/>
      <point x="318.4912" y="587.62" type="curve" smooth="yes"/>
      <point x="178.07080000000002" y="587.62"/>
      <point x="95.58359999999999" y="499.81600000000003"/>
      <point x="95.58359999999999" y="390.18399999999997" type="curve" smooth="yes"/>
      <point x="95.58359999999999" y="285.782"/>
      <point x="173.8132" y="208.38"/>
      <point x="301.94280000000003" y="208.38" type="curve" smooth="yes"/>
      <point x="418.36760000000004" y="208.38"/>
      <point x="510.7790430831848" y="282.72997586944"/>
      <point x="562.5028" y="370.92" type="curve"/>
      <point x="575.3428000000001" y="346.586" type="line"/>
      <point x="528.8740076510928" y="259.720999051356"/>
      <point x="426.45320000000004" y="177.0"/>
      <point x="299.55920000000003" y="177.0" type="curve" smooth="yes"/>
      <point x="149.7828" y="177.0"/>
      <point x="51.6452" y="264.81600000000003"/>
      <point x="51.6452" y="390.18399999999997" type="curve" smooth="yes"/>
      <point x="51.6452" y="514.598"/>
      <point x="162.1196" y="619.0"/>
      <point x="318.4912" y="619.0" type="curve" smooth="yes"/>
      <point x="474.1176" y="619.0"/>
      <point x="590.3896" y="515.2760000000001"/>
      <point x="590.3896" y="335.804" type="curve" smooth="yes"/>
      <point x="590.3896" y="104.712"/>
      <point x="408.7122736580568" y="-75.9846718832016"/>
      <point x="114.9344" y="-93.0" type="curve"/>
    </contour>
  </outline>
</glyph>
<glyph name="E" format="2">
  <advance width="687"/>
  <unicode hex="0045"/>
  <anchor x="404.43359999999996" y="741.0" name="top"/>
  <anchor x="473.6796" y="0.0" name="right"/>
  <anchor x="404.43359999999996" y="0.0" name="bottom"/>
  <outline>
    <contour>
      <point x="623.4688" y="189.334" type="line"/>
      <point x="595.7236" y="189.334" type="line"/>
      <point x="585.3436" y="74.334" type="line" smooth="yes"/>
      <point x="581.8836000000001" y="38.334"/>
      <point x="539.8208" y="31.334"/>
      <point x="440.0208" y="31.334" type="curve" smooth="yes"/>
      <point x="204.1012" y="31.334" type="line"/>
      <point x="204.1012" y="678.666" type="line"/>
      <point x="406.5036" y="678.666" type="line" smooth="yes"/>
      <point x="506.3036000000001" y="678.666"/>
      <point x="546.7408" y="671.666"/>
      <point x="551.7436" y="635.666" type="curve" smooth="yes"/>
      <point x="562.1236" y="545.666" type="line"/>
      <point x="588.8688" y="545.666" type="line"/>
      <point x="588.8688" y="710.0" type="line"/>
      <point x="52.36" y="710.0" type="line"/>
      <point x="52.36" y="679.218" type="line"/>
      <point x="65.2" y="679.218" type="line" smooth="yes"/>
      <point x="122.02000000000001" y="679.218"/>
      <point x="163.54000000000002" y="672.218"/>
      <point x="163.54000000000002" y="643.218" type="curve" smooth="yes"/>
      <point x="163.54000000000002" y="66.782" type="line" smooth="yes"/>
      <point x="163.54000000000002" y="37.782000000000004"/>
      <point x="122.02000000000001" y="30.782"/>
      <point x="65.2" y="30.782" type="curve" smooth="yes"/>
      <point x="52.36" y="30.782" type="line"/>
      <point x="52.36" y="0.0" type="line"/>
      <point x="623.4688" y="0.0" type="line"/>
    </contour>
    <contour>
      <point x="182" y="379" type="curve"/>
      <point x="182" y="349" type="line"/>
      <point x="289" y="348"/>
      <point x="370" y="347"/>
      <point x="499" y="345" type="curve"/>
      <point x="499" y="383" type="line"/>
      <point x="384" y="381"/>
      <point x="288" y="380"/>
    </contour>
  </outline>
</glyph>
<glyph name="Z" format="2">
  <advance width="676.7856"/>
  <unicode hex="005A"/>
  <anchor x="349.9448" y="741.0" name="top"/>
  <anchor x="349.9448" y="0.0" name="bottom"/>
  <outline>
    <contour>
      <point x="73.0196" y="31.334" type="line"/>
      <point x="88.2368" y="15.184000000000001" type="line"/>
      <point x="610.2912" y="678.436" type="line"/>
      <point x="610.2912" y="710.0" type="line"/>
      <point x="77.91120000000001" y="710.0" type="line"/>
      <point x="77.91120000000001" y="539.712" type="line"/>
      <point x="105.1992" y="539.712" type="line"/>
      <point x="115.57920000000001" y="635.666" type="line" smooth="yes"/>
      <point x="119.03920000000001" y="671.666"/>
      <point x="160.4764" y="678.666"/>
      <point x="260.2764" y="678.666" type="curve" smooth="yes"/>
      <point x="579.8376" y="678.666" type="line"/>
      <point x="569.5340000000001" y="688.54" type="line"/>
      <point x="52.028800000000004" y="34.564" type="line"/>
      <point x="52.028800000000004" y="0.0" type="line"/>
      <point x="624.7936" y="0.0" type="line"/>
      <point x="624.7936" y="193.874" type="line"/>
      <point x="597.1312" y="193.874" type="line"/>
      <point x="586.7512" y="74.334" type="line" smooth="yes"/>
      <point x="583.2912" y="38.334"/>
      <point x="541.3112" y="31.334"/>
      <point x="441.51120000000003" y="31.334" type="curve" smooth="yes"/>
    </contour>
  </outline>
</glyph>
<glyph name="m" format="2">
  <advance width="1004"/>
  <unicode hex="006D"/>
  <outline>
    <contour>
      <point x="40.1888" y="0.0" type="line"/>
      <point x="266.5036" y="0.0" type="line"/>
      <point x="266.5036" y="27.828" type="line"/>
      <point x="262.878" y="27.828" type="line" smooth="yes"/>
      <point x="230.1952" y="27.828"/>
      <point x="178.964" y="30.828"/>
      <point x="178.964" y="37.827999999999996" type="curve" smooth="yes"/>
      <point x="178.964" y="397.724" type="line"/>
      <point x="180.1232" y="398.276" type="line"/>
      <point x="180.1232" y="508.0" type="line"/>
      <point x="40.1888" y="508.0" type="line"/>
      <point x="40.1888" y="482.034" type="line"/>
      <point x="52.028800000000004" y="480.034" type="line" smooth="yes"/>
      <point x="109.84880000000001" y="470.034"/>
      <point x="137.9888" y="464.034"/>
      <point x="137.9888" y="435.034" type="curve" smooth="yes"/>
      <point x="137.9888" y="63.827999999999996" type="line" smooth="yes"/>
      <point x="137.9888" y="34.827999999999996"/>
      <point x="98.4688" y="27.828"/>
      <point x="42.6488" y="27.828" type="curve" smooth="yes"/>
      <point x="40.1888" y="27.828" type="line"/>
    </contour>
    <contour>
      <point x="614.052" y="0.0" type="line"/>
      <point x="614.052" y="27.828" type="line"/>
      <point x="611.4264000000001" y="27.828" type="line" smooth="yes"/>
      <point x="578.8264" y="27.828"/>
      <point x="526.1351999999999" y="30.828"/>
      <point x="526.1351999999999" y="37.827999999999996" type="curve" smooth="yes"/>
      <point x="526.1351999999999" y="357.0" type="line" smooth="yes"/>
      <point x="526.1351999999999" y="468.0"/>
      <point x="469.226" y="518.0"/>
      <point x="369.42600000000004" y="518.0" type="curve"/>
      <point x="288.1744" y="518.0"/>
      <point x="231.10600000000002" y="483.908"/>
      <point x="175.4516" y="417.678" type="curve"/>
      <point x="175.4516" y="372.48199999999997" type="line"/>
      <point x="225.1032" y="441.666"/>
      <point x="283.7972" y="483.62"/>
      <point x="361.874" y="483.62" type="curve"/>
      <point x="452.94360000000006" y="483.62"/>
      <point x="485.16" y="441.034"/>
      <point x="485.16" y="345.954" type="curve" smooth="yes"/>
      <point x="485.16" y="37.827999999999996" type="line" smooth="yes"/>
      <point x="485.16" y="30.828"/>
      <point x="432.846" y="27.828"/>
      <point x="400.24600000000004" y="27.828" type="curve" smooth="yes"/>
      <point x="397.786" y="27.828" type="line"/>
      <point x="397.786" y="0.0" type="line"/>
    </contour>
    <contour>
      <point x="970.858" y="0.0" type="line"/>
      <point x="970.858" y="27.828" type="line"/>
      <point x="969.0236" y="27.828" type="line" smooth="yes"/>
      <point x="913.2035999999999" y="27.828"/>
      <point x="873.7664" y="34.827999999999996"/>
      <point x="873.7664" y="63.827999999999996" type="curve" smooth="yes"/>
      <point x="873.7664" y="357.0" type="line" smooth="yes"/>
      <point x="873.7664" y="468.0"/>
      <point x="816.48" y="518.0"/>
      <point x="716.5144" y="518.0" type="curve"/>
      <point x="633.1800000000001" y="518.0"/>
      <point x="573.3204000000001" y="482.0"/>
      <point x="516.5832" y="411.0" type="curve"/>
      <point x="516.5832" y="365.804" type="line"/>
      <point x="569.026" y="437.85"/>
      <point x="627.0116" y="483.62"/>
      <point x="709.588" y="483.62" type="curve"/>
      <point x="800.5748000000001" y="483.62"/>
      <point x="832.7912" y="441.034"/>
      <point x="832.7912" y="345.954" type="curve" smooth="yes"/>
      <point x="832.7912" y="37.827999999999996" type="line" smooth="yes"/>
      <point x="832.7912" y="30.874"/>
      <point x="779.8516" y="27.828"/>
      <point x="747.1687999999999" y="27.828" type="curve" smooth="yes"/>
      <point x="745.3344" y="27.828" type="line"/>
      <point x="745.3344" y="0.0" type="line"/>
    </contour>
  </outline>
</glyph>
<glyph name="yen" format="2">
  <advance width="650.1600000000001"/>
  <unicode hex="00A5"/>
  <outline>
    <contour>
      <point x="94.536" y="344.46" type="line"/>
      <point x="94.536" y="313.448" type="line"/>
      <point x="555.2927999999999" y="313.448" type="line"/>
      <point x="555.2927999999999" y="344.46" type="line"/>
    </contour>
    <contour>
      <point x="94.536" y="207.78199999999998" type="line"/>
      <point x="94.536" y="176.77" type="line"/>
      <point x="555.2927999999999" y="176.77" type="line"/>
      <point x="555.2927999999999" y="207.78199999999998" type="line"/>
    </contour>
    <contour>
      <point x="12.419599999999999" y="710.0" type="line"/>
      <point x="12.419599999999999" y="679.218" type="line"/>
      <point x="17.7968" y="679.218" type="line" smooth="yes"/>
      <point x="57.8136" y="679.218"/>
      <point x="89.8276" y="680.126"/>
      <point x="107.21039999999999" y="653.218" type="curve" smooth="yes"/>
      <point x="316.1904" y="318.0" type="line"/>
      <point x="335.1812" y="318.0" type="line"/>
      <point x="532.5696" y="638.218" type="line" smooth="yes"/>
      <point x="555.7896000000001" y="675.218"/>
      <point x="592.3464" y="679.218"/>
      <point x="632.3632" y="679.218" type="curve" smooth="yes"/>
      <point x="637.7404" y="679.218" type="line"/>
      <point x="637.7404" y="710.0" type="line"/>
      <point x="392.9424" y="710.0" type="line"/>
      <point x="392.9424" y="679.218" type="line"/>
      <point x="410.78520000000003" y="679.218" type="line" smooth="yes"/>
      <point x="455.17920000000004" y="679.218"/>
      <point x="508.11879999999996" y="672.218"/>
      <point x="508.11879999999996" y="661.218" type="curve"/>
      <point x="307.8692" y="339.104" type="line"/>
      <point x="341.2732" y="348.644" type="line"/>
      <point x="143.7624" y="669.218" type="line"/>
      <point x="143.7624" y="676.218"/>
      <point x="199.16199999999998" y="679.218"/>
      <point x="241.6388" y="679.218" type="curve" smooth="yes"/>
      <point x="260.856" y="679.218" type="line"/>
      <point x="260.856" y="710.0" type="line"/>
    </contour>
    <contour>
      <point x="188.65800000000002" y="0.0" type="line"/>
      <point x="463.87919999999997" y="0.0" type="line"/>
      <point x="463.87919999999997" y="30.782" type="line"/>
      <point x="445.202" y="30.782" type="line" smooth="yes"/>
      <point x="388.382" y="30.782"/>
      <point x="346.402" y="37.782000000000004"/>
      <point x="346.402" y="66.782" type="curve" smooth="yes"/>
      <point x="346.402" y="351.552" type="line"/>
      <point x="305.5924" y="351.552" type="line"/>
      <point x="305.5924" y="66.782" type="line" smooth="yes"/>
      <point x="305.5924" y="37.782000000000004"/>
      <point x="264.15520000000004" y="30.782"/>
      <point x="207.3352" y="30.782" type="curve" smooth="yes"/>
      <point x="188.65800000000002" y="30.782" type="line"/>
    </contour>
  </outline>
</glyph>
<glyph name="Eth" format="2">
  <advance width="832.7496"/>
  <unicode hex="00D0"/>
  <outline>
    <contour>
      <point x="52.36" y="370.50600000000003" type="line"/>
      <point x="504.92" y="370.50600000000003" type="line"/>
      <point x="504.92" y="339.49399999999997" type="line"/>
      <point x="52.36" y="339.49399999999997" type="line"/>
    </contour>
    <component base="D" xOffset="33.331600000000016"/>
  </outline>
</glyph>
<glyph name="eng" format="2">
  <advance width="666.7432"/>
  <unicode hex="014B"/>
  <outline>
    <contour>
      <point x="40.1888" y="0.0" type="line"/>
      <point x="265.924" y="0.0" type="line"/>
      <point x="265.924" y="27.828" type="line"/>
      <point x="262.464" y="27.828" type="line" smooth="yes"/>
      <point x="229.86399999999998" y="27.828"/>
      <point x="178.964" y="30.828"/>
      <point x="178.964" y="37.827999999999996" type="curve" smooth="yes"/>
      <point x="178.964" y="397.678" type="line"/>
      <point x="179.9576" y="389.598" type="line"/>
      <point x="179.9576" y="508.0" type="line"/>
      <point x="40.1888" y="508.0" type="line"/>
      <point x="40.1888" y="482.034" type="line"/>
      <point x="52.028800000000004" y="480.034" type="line" smooth="yes"/>
      <point x="109.84880000000001" y="470.034"/>
      <point x="137.9888" y="464.034"/>
      <point x="137.9888" y="435.034" type="curve" smooth="yes"/>
      <point x="137.9888" y="63.827999999999996" type="line" smooth="yes"/>
      <point x="137.9888" y="34.827999999999996"/>
      <point x="98.4688" y="27.828"/>
      <point x="42.6488" y="27.828" type="curve" smooth="yes"/>
      <point x="40.1888" y="27.828" type="line"/>
    </contour>
    <contour>
      <point x="561.1124" y="357.0" type="line" smooth="yes"/>
      <point x="561.1124" y="468.0"/>
      <point x="498.366" y="518.0"/>
      <point x="390.3516" y="518.0" type="curve" smooth="yes"/>
      <point x="288.2508" y="518.0"/>
      <point x="215.63400000000001" y="467.678"/>
      <point x="143.34199999999998" y="364.988" type="curve"/>
      <point x="152.9464" y="334.264" type="line"/>
      <point x="215.7232" y="427.08"/>
      <point x="287.0088" y="483.62"/>
      <point x="383.4252" y="483.62" type="curve" smooth="yes"/>
      <point x="484.0008" y="483.62"/>
      <point x="520.1372" y="441.034"/>
      <point x="520.1372" y="346.0" type="curve"/>
      <point x="520.1372" y="-73.62" type="line" smooth="yes"/>
      <point x="520.1372" y="-170.712"/>
      <point x="473.69719999999995" y="-202.62"/>
      <point x="398.7032" y="-202.62" type="curve" smooth="yes"/>
      <point x="354.8124" y="-202.62"/>
      <point x="323.424" y="-193.804"/>
      <point x="296.744" y="-184.942" type="curve"/>
      <point x="296.744" y="-220.276" type="line"/>
      <point x="319.04679999999996" y="-229.138"/>
      <point x="349.6072" y="-236.0"/>
      <point x="398.372" y="-236.0" type="curve" smooth="yes"/>
      <point x="477.22240000000005" y="-236.0"/>
      <point x="561.1124" y="-203.54"/>
      <point x="561.1124" y="-73.62" type="curve" smooth="yes"/>
    </contour>
  </outline>
</glyph>
<glyph name="Tbar" format="2">
  <advance width="729.52"/>
  <unicode hex="0166"/>
  <outline>
    <contour>
      <point x="139.7928" y="370.46" type="line"/>
      <point x="591.3528" y="370.46" type="line"/>
      <point x="591.3528" y="339.448" type="line"/>
      <point x="139.7928" y="339.448" type="line"/>
    </contour>
    <component base="T" xOffset="41.33559999999999"/>
  </outline>
</glyph>
<glyph name="tbar" format="2">
  <advance width="386.14"/>
  <unicode hex="0167"/>
  <outline>
    <contour>
      <point x="342.6632" y="313.50600000000003" type="line"/>
      <point x="18.0452" y="313.50600000000003" type="line"/>
      <point x="18.0452" y="282.49399999999997" type="line"/>
      <point x="342.6632" y="282.49399999999997" type="line"/>
    </contour>
    <component base="t" xOffset="24.09480000000001"/>
  </outline>
</glyph>
<glyph name="Oogonek" format="2">
  <advance width="862.3036"/>
  <unicode hex="01EA"/>
  <outline>
    <contour>
      <point x="430.6104" y="21.38" type="curve" smooth="yes"/>
      <point x="235.0692" y="21.38"/>
      <point x="98.4272" y="150.828"/>
      <point x="98.4272" y="355.0" type="curve" smooth="yes"/>
      <point x="98.4272" y="559.172"/>
      <point x="235.15200000000004" y="688.62"/>
      <point x="430.6104" y="688.62" type="curve" smooth="yes"/>
      <point x="625.6088" y="688.62"/>
      <point x="763.9592" y="559.172"/>
      <point x="763.9592" y="355.0" type="curve" smooth="yes"/>
      <point x="763.9592" y="150.828"/>
      <point x="625.6088" y="21.38"/>
    </contour>
    <contour>
      <point x="555.4344" y="21.46" type="line"/>
      <point x="475.4424" y="-21.954"/>
      <point x="400.6904" y="-69.276"/>
      <point x="400.6904" y="-140.23" type="curve" smooth="yes"/>
      <point x="400.6904" y="-198.184"/>
      <point x="450.4248" y="-233.138"/>
      <point x="510.0056" y="-233.138" type="curve" smooth="yes"/>
      <point x="558.8292" y="-233.138"/>
      <point x="597.5516" y="-211.276"/>
      <point x="629.4" y="-180.46" type="curve"/>
      <point x="608.2564" y="-159.816" type="line"/>
      <point x="581.5828" y="-182.31"/>
      <point x="555.9488" y="-202.126"/>
      <point x="515.104" y="-202.126" type="curve" smooth="yes"/>
      <point x="475.4248" y="-202.126"/>
      <point x="441.5828" y="-180.448"/>
      <point x="441.5828" y="-139.816" type="curve" smooth="yes"/>
      <point x="441.5828" y="-66.804"/>
      <point x="502.2112" y="-28.528"/>
      <point x="627.2948" y="42.61" type="curve" smooth="yes"/>
      <point x="738.3792" y="106.794"/>
      <point x="807.4836" y="216.288"/>
      <point x="807.4836" y="355.0" type="curve" smooth="yes"/>
      <point x="807.4836" y="572.0"/>
      <point x="645.2683999999999" y="720.0"/>
      <point x="430.6104" y="720.0" type="curve" smooth="yes"/>
      <point x="217.0352" y="720.0"/>
      <point x="54.36" y="572.0"/>
      <point x="54.36" y="355.0" type="curve" smooth="yes"/>
      <point x="54.36" y="139.0"/>
      <point x="217.0352" y="-10.0"/>
      <point x="430.6104" y="-10.0" type="curve" smooth="yes"/>
      <point x="470.5508" y="-10.0"/>
      <point x="509.49120000000005" y="-4.954"/>
      <point x="545.1372" y="5.138" type="curve"/>
    </contour>
  </outline>
</glyph>
<glyph name="breve" format="2">
  <advance width="580.4172"/>
  <unicode hex="02D8"/>
  <anchor x="294.2712" y="536.08" name="_top"/>
  <outline>
    <contour>
      <point x="294.2712" y="593.31" type="curve" smooth="yes"/>
      <point x="214.5992" y="593.31"/>
      <point x="161.31560000000002" y="642.31"/>
      <point x="155.3956" y="736.0" type="curve"/>
      <point x="184.4352" y="736.0" type="line"/>
      <point x="194.98080000000002" y="662.2760000000001"/>
      <point x="232.5376" y="637.506"/>
      <point x="295.0228" y="637.506" type="curve" smooth="yes"/>
      <point x="354.8824" y="637.506"/>
      <point x="395.23040000000003" y="662.2760000000001"/>
      <point x="405.776" y="736.0" type="curve"/>
      <point x="432.6868" y="736.0" type="line"/>
      <point x="426.7668" y="642.31"/>
      <point x="373.4832" y="593.31"/>
    </contour>
  </outline>
</glyph>
<glyph name="pi" format="2">
  <advance width="814.3972"/>
  <unicode hex="03C0"/>
  <outline>
    <contour>
      <point x="302.9776" y="0.0" type="line"/>
      <point x="302.9776" y="487.54" type="line"/>
      <point x="271.39520000000005" y="487.54" type="line"/>
      <point x="263.8064" y="221.356"/>
      <point x="257.0824" y="187.816"/>
      <point x="257.0824" y="0.0" type="curve"/>
    </contour>
    <contour>
      <point x="753.4852000000001" y="475.7" type="line"/>
      <point x="753.4852000000001" y="508.0" type="line"/>
      <point x="322.7728" y="508.0" type="line" smooth="yes"/>
      <point x="157.5832" y="508.0"/>
      <point x="91.66199999999999" y="443.86199999999997"/>
      <point x="65.396" y="336.322" type="curve"/>
      <point x="90.72720000000001" y="321.54" type="line"/>
      <point x="113.53320000000001" y="417.43600000000004"/>
      <point x="162.93" y="475.7"/>
      <point x="324.76" y="475.7" type="curve" smooth="yes"/>
    </contour>
    <contour>
      <point x="599.6628000000001" y="93.506" type="curve" smooth="yes"/>
      <point x="599.6628000000001" y="487.54" type="line"/>
      <point x="569.12" y="487.54" type="line"/>
      <point x="561.0712" y="239.816"/>
      <point x="554.3104000000001" y="159.46"/>
      <point x="554.3104000000001" y="98.276" type="curve" smooth="yes"/>
      <point x="554.3104000000001" y="26.816"/>
      <point x="591.9628" y="-6.184"/>
      <point x="651.7984" y="-6.184" type="curve" smooth="yes"/>
      <point x="721.0444" y="-6.184"/>
      <point x="752.568" y="36.77"/>
      <point x="771.7484" y="84.816" type="curve"/>
      <point x="745.5956" y="97.644" type="line"/>
      <point x="738.6692" y="78.092"/>
      <point x="716.7804" y="25.426000000000002"/>
      <point x="657.642" y="25.426000000000002" type="curve" smooth="yes"/>
      <point x="627.502" y="25.426000000000002"/>
      <point x="599.6628000000001" y="40.334"/>
    </contour>
  </outline>
</glyph>
<glyph name="daggerdbl" format="2">
  <advance width="459.9288"/>
  <unicode hex="2021"/>
  <outline>
    <contour>
      <point x="226.66359999999997" y="505.13800000000003" type="line"/>
      <point x="233.2652" y="505.13800000000003" type="line"/>
      <point x="402.7252" y="490.068" type="line"/>
      <point x="437.78520000000003" y="490.068" type="line"/>
      <point x="437.78520000000003" y="535.564" type="line"/>
      <point x="402.7252" y="535.564" type="line"/>
      <point x="233.2652" y="524.598" type="line"/>
      <point x="226.66359999999997" y="524.598" type="line"/>
      <point x="57.2036" y="535.564" type="line"/>
      <point x="22.1436" y="535.564" type="line"/>
      <point x="22.1436" y="490.068" type="line"/>
      <point x="57.2036" y="490.068" type="line"/>
    </contour>
    <contour>
      <point x="226.66359999999997" y="204.862" type="line"/>
      <point x="57.2036" y="219.932" type="line"/>
      <point x="22.1436" y="219.932" type="line"/>
      <point x="22.1436" y="174.436" type="line"/>
      <point x="57.2036" y="174.436" type="line"/>
      <point x="226.66359999999997" y="185.402" type="line"/>
      <point x="233.2652" y="185.402" type="line"/>
      <point x="402.7252" y="174.436" type="line"/>
      <point x="437.78520000000003" y="174.436" type="line"/>
      <point x="437.78520000000003" y="219.932" type="line"/>
      <point x="402.7252" y="219.932" type="line"/>
      <point x="233.2652" y="204.862" type="line"/>
    </contour>
    <contour>
      <point x="203.9708" y="344.448" type="line"/>
      <point x="212.1916" y="305.402"/>
      <point x="218.53199999999998" y="260.81600000000003"/>
      <point x="218.53199999999998" y="200.448" type="curve"/>
      <point x="218.53199999999998" y="132.678"/>
      <point x="210.3048" y="68.092"/>
      <point x="210.3048" y="35.0" type="curve" smooth="yes"/>
      <point x="210.3048" y="0.0" type="line"/>
      <point x="249.624" y="0.0" type="line"/>
      <point x="249.624" y="35.0" type="line" smooth="yes"/>
      <point x="249.624" y="68.092"/>
      <point x="241.39679999999998" y="132.678"/>
      <point x="241.39679999999998" y="200.448" type="curve"/>
      <point x="241.39679999999998" y="260.81600000000003"/>
      <point x="247.7372" y="305.402"/>
      <point x="255.95799999999997" y="344.448" type="curve"/>
      <point x="255.95799999999997" y="365.552" type="line"/>
      <point x="247.7372" y="404.598"/>
      <point x="241.39679999999998" y="449.18399999999997"/>
      <point x="241.39679999999998" y="509.552" type="curve"/>
      <point x="241.39679999999998" y="577.322"/>
      <point x="249.624" y="641.908"/>
      <point x="249.624" y="675.0" type="curve" smooth="yes"/>
      <point x="249.624" y="710.0" type="line"/>
      <point x="210.3048" y="710.0" type="line"/>
      <point x="210.3048" y="675.0" type="line" smooth="yes"/>
      <point x="210.3048" y="641.908"/>
      <point x="218.53199999999998" y="577.322"/>
      <point x="218.53199999999998" y="509.552" type="curve"/>
      <point x="218.53199999999998" y="449.18399999999997"/>
      <point x="212.1916" y="404.598"/>
      <point x="203.9708" y="365.552" type="curve"/>
    </contour>
  </outline>
</glyph>
<glyph name="franc" format="2">
  <advance width="650.1600000000001"/>
  <unicode hex="20A3"/>
  <outline>
    <contour>
      <point x="212.3636" y="393.414" type="line"/>
      <point x="212.3636" y="368.12600000000003" type="line"/>
      <point x="531.5044" y="364.896" type="line"/>
      <point x="531.5044" y="396.644" type="line"/>
    </contour>
    <contour>
      <point x="234.5072" y="678.7579999999999" type="line"/>
      <point x="439.73120000000006" y="678.7579999999999" type="line" smooth="yes"/>
      <point x="539.5312" y="678.7579999999999"/>
      <point x="580.5112" y="671.7579999999999"/>
      <point x="584.9712000000001" y="635.7579999999999" type="curve" smooth="yes"/>
      <point x="595.3512000000001" y="545.9879999999999" type="line"/>
      <point x="622.0136" y="545.9879999999999" type="line"/>
      <point x="622.0136" y="710.0" type="line"/>
      <point x="82.84880000000001" y="710.0" type="line"/>
      <point x="82.84880000000001" y="679.218" type="line"/>
      <point x="95.68880000000001" y="679.218" type="line" smooth="yes"/>
      <point x="152.50879999999998" y="679.218"/>
      <point x="193.946" y="672.218"/>
      <point x="193.946" y="643.218" type="curve" smooth="yes"/>
      <point x="193.946" y="66.782" type="line" smooth="yes"/>
      <point x="193.946" y="37.782000000000004"/>
      <point x="152.50879999999998" y="30.782"/>
      <point x="95.68880000000001" y="30.782" type="curve" smooth="yes"/>
      <point x="82.84880000000001" y="30.782" type="line"/>
      <point x="82.84880000000001" y="0.0" type="line"/>
      <point x="364.99" y="0.0" type="line"/>
      <point x="364.99" y="30.782" type="line"/>
      <point x="345.23" y="30.782" type="line" smooth="yes"/>
      <point x="295.33000000000004" y="30.782"/>
      <point x="234.5072" y="31.782"/>
      <point x="234.5072" y="66.782" type="curve" smooth="yes"/>
    </contour>
    <contour>
      <point x="82.84880000000001" y="219.506" type="line"/>
      <point x="82.84880000000001" y="188.494" type="line"/>
      <point x="419.202" y="188.494" type="line"/>
      <point x="419.202" y="219.506" type="line"/>
    </contour>
  </outline>
</glyph>
<glyph name="won" format="2">
  <advance width="650.1600000000001"/>
  <unicode hex="20A9"/>
  <outline>
    <contour>
      <point x="-18.1216" y="710.0" type="line"/>
      <point x="-18.1216" y="679.218" type="line"/>
      <point x="-12.1188" y="679.218" type="line" smooth="yes"/>
      <point x="22.1436" y="679.218"/>
      <point x="45.5292" y="676.218"/>
      <point x="51.6976" y="642.218" type="curve" smooth="yes"/>
      <point x="157.76639999999998" y="0.0" type="line"/>
      <point x="202.71120000000002" y="0.0" type="line"/>
      <point x="330.25480000000005" y="684.908" type="line"/>
      <point x="321.3716" y="689.0" type="line"/>
      <point x="460.20599999999996" y="0.0" type="line"/>
      <point x="510.8988" y="0.0" type="line"/>
      <point x="598.4624000000001" y="636.218" type="line" smooth="yes"/>
      <point x="603.6308" y="670.218"/>
      <point x="629.0164" y="679.218"/>
      <point x="661.196" y="679.218" type="curve" smooth="yes"/>
      <point x="667.1988" y="679.218" type="line"/>
      <point x="667.1988" y="710.0" type="line"/>
      <point x="477.1508" y="710.0" type="line"/>
      <point x="477.1508" y="679.218" type="line"/>
      <point x="495.61" y="679.218" type="line" smooth="yes"/>
      <point x="529.7067999999999" y="679.218"/>
      <point x="571.4688" y="672.218"/>
      <point x="571.4688" y="661.218" type="curve"/>
      <point x="481.8656" y="15.23" type="line"/>
      <point x="490.6596" y="12.598" type="line"/>
      <point x="348.19960000000003" y="710.0" type="line"/>
      <point x="305.0956" y="710.0" type="line"/>
      <point x="178.09480000000002" y="18.678" type="line"/>
      <point x="187.3092" y="18.816" type="line"/>
      <point x="81.1576" y="669.218" type="line"/>
      <point x="81.1576" y="676.218"/>
      <point x="125.4624" y="679.218"/>
      <point x="159.97320000000002" y="679.218" type="curve" smooth="yes"/>
      <point x="180.8096" y="679.218" type="line"/>
      <point x="180.8096" y="710.0" type="line"/>
    </contour>
    <contour>
      <point x="-18.1216" y="438.87399999999997" type="line"/>
      <point x="-18.1216" y="407.86199999999997" type="line"/>
      <point x="99.4448" y="407.86199999999997" type="line"/>
      <point x="107.3648" y="407.86199999999997" type="line"/>
      <point x="265.5516" y="407.86199999999997" type="line"/>
      <point x="277.55719999999997" y="438.87399999999997" type="line"/>
    </contour>
    <contour>
      <point x="392.5808" y="407.86199999999997" type="line"/>
      <point x="544.3507999999999" y="407.86199999999997" type="line"/>
      <point x="563.6444" y="407.86199999999997" type="line"/>
      <point x="667.1988" y="407.86199999999997" type="line"/>
      <point x="667.1988" y="438.87399999999997" type="line"/>
      <point x="387.0748" y="438.87399999999997" type="line"/>
    </contour>
    <contour>
      <point x="228.82920000000001" y="252.264" type="line"/>
      <point x="428.754" y="252.264" type="line"/>
      <point x="413.16880000000003" y="283.276" type="line"/>
      <point x="240.6692" y="283.276" type="line"/>
    </contour>
    <contour>
      <point x="121.6888" y="283.276" type="line"/>
      <point x="-18.1216" y="283.276" type="line"/>
      <point x="-18.1216" y="252.264" type="line"/>
      <point x="128.0292" y="252.264" type="line"/>
    </contour>
    <contour>
      <point x="538.5963999999999" y="252.264" type="line"/>
      <point x="667.1988" y="252.264" type="line"/>
      <point x="667.1988" y="283.276" type="line"/>
      <point x="537.106" y="283.276" type="line"/>
    </contour>
  </outline>
</glyph>
<glyph name="litre" format="2">
  <advance width="606.1800000000001"/>
  <unicode hex="2113"/>
  <outline>
    <contour>
      <point x="260.098" y="238.0" type="curve" smooth="yes"/>
      <point x="260.098" y="578.172"/>
      <point x="314.872" y="678.942"/>
      <point x="397.2" y="678.942" type="curve" smooth="yes"/>
      <point x="449.7624" y="678.942"/>
      <point x="466.228" y="631.7239999999999"/>
      <point x="466.228" y="562.138" type="curve" smooth="yes"/>
      <point x="466.228" y="392.23"/>
      <point x="305.3810973827496" y="283.905072913336"/>
      <point x="71.316" y="218.92" type="curve"/>
      <point x="80.19919999999999" y="191.0" type="line"/>
      <point x="320.54359999999997" y="255.276"/>
      <point x="504.9852" y="394.77"/>
      <point x="504.9852" y="562.138" type="curve" smooth="yes"/>
      <point x="504.9852" y="638.322"/>
      <point x="477.9612" y="710.0"/>
      <point x="397.0344" y="710.0" type="curve" smooth="yes"/>
      <point x="284.8388" y="710.0"/>
      <point x="214.8348" y="580.0"/>
      <point x="214.8348" y="238.0" type="curve" smooth="yes"/>
      <point x="214.8348" y="54.862"/>
      <point x="270.744" y="-10.0"/>
      <point x="362.4712" y="-10.0" type="curve" smooth="yes"/>
      <point x="444.7292" y="-10.0"/>
      <point x="493.9668" y="59.0"/>
      <point x="523.1896" y="130.0" type="curve"/>
      <point x="499.242" y="145.276" type="line"/>
      <point x="476.4161918593344" y="91.8611859077228"/>
      <point x="436.3364" y="21.058"/>
      <point x="365.4344" y="21.058" type="curve" smooth="yes"/>
      <point x="311.7432" y="21.058"/>
      <point x="260.098" y="58.736000000000004"/>
    </contour>
  </outline>
</glyph>
<glyph name="trademark" format="2">
  <advance width="963.4284"/>
  <unicode hex="2122"/>
  <outline>
    <contour>
      <point x="82.1164" y="710.0" type="line"/>
      <point x="82.1164" y="616.402" type="line"/>
      <point x="111.5572" y="616.402" type="line"/>
      <point x="116.0172" y="664.402" type="line" smooth="yes"/>
      <point x="116.9344" y="678.402"/>
      <point x="135.7772" y="685.402"/>
      <point x="179.6744" y="685.402" type="curve" smooth="yes"/>
      <point x="220.43640000000002" y="685.402" type="line"/>
      <point x="220.43640000000002" y="436.50600000000003" type="line" smooth="yes"/>
      <point x="220.43640000000002" y="423.50600000000003"/>
      <point x="200.6764" y="419.50600000000003"/>
      <point x="174.9964" y="419.50600000000003" type="curve" smooth="yes"/>
      <point x="163.6164" y="419.50600000000003" type="line"/>
      <point x="163.6164" y="395.0" type="line"/>
      <point x="316.8352" y="395.0" type="line"/>
      <point x="316.8352" y="419.50600000000003" type="line"/>
      <point x="304.9124" y="419.50600000000003" type="line" smooth="yes"/>
      <point x="279.77520000000004" y="419.50600000000003"/>
      <point x="260.0152" y="423.50600000000003"/>
      <point x="260.0152" y="436.50600000000003" type="curve" smooth="yes"/>
      <point x="260.0152" y="685.402" type="line"/>
      <point x="300.7772" y="685.402" type="line" smooth="yes"/>
      <point x="344.7572" y="685.402"/>
      <point x="363.5172" y="678.402"/>
      <point x="364.5172" y="664.402" type="curve" smooth="yes"/>
      <point x="368.8944" y="616.402" type="line"/>
      <point x="397.79240000000004" y="616.402" type="line"/>
      <point x="397.79240000000004" y="710.0" type="line"/>
    </contour>
    <contour>
      <point x="451.8912" y="395.0" type="line"/>
      <point x="574.8808" y="395.0" type="line"/>
      <point x="574.8808" y="419.50600000000003" type="line"/>
      <point x="569.6296" y="419.50600000000003" type="line" smooth="yes"/>
      <point x="558.3324" y="419.50600000000003"/>
      <point x="533.5696" y="422.50600000000003"/>
      <point x="533.5696" y="424.50600000000003" type="curve" smooth="yes"/>
      <point x="533.5696" y="702.0" type="line"/>
      <point x="530.4408000000001" y="701.0" type="line"/>
      <point x="653.5372" y="394.0" type="line"/>
      <point x="681.0276" y="394.0" type="line"/>
      <point x="807.6668" y="701.0" type="line"/>
      <point x="804.7036" y="701.0" type="line"/>
      <point x="804.7036" y="424.50600000000003" type="line" smooth="yes"/>
      <point x="804.7036" y="422.50600000000003"/>
      <point x="783.9436000000001" y="419.50600000000003"/>
      <point x="769.5608" y="419.50600000000003" type="curve" smooth="yes"/>
      <point x="763.9352" y="419.50600000000003" type="line"/>
      <point x="763.9352" y="395.0" type="line"/>
      <point x="893.7683999999999" y="395.0" type="line"/>
      <point x="893.7683999999999" y="419.50600000000003" type="line"/>
      <point x="885.3884" y="419.50600000000003" type="line" smooth="yes"/>
      <point x="859.6256" y="419.50600000000003"/>
      <point x="842.4084" y="423.50600000000003"/>
      <point x="842.4084" y="436.50600000000003" type="curve" smooth="yes"/>
      <point x="842.4084" y="669.494" type="line" smooth="yes"/>
      <point x="842.4084" y="683.494"/>
      <point x="859.6256" y="685.494"/>
      <point x="885.3884" y="685.494" type="curve" smooth="yes"/>
      <point x="893.7683999999999" y="685.494" type="line"/>
      <point x="893.7683999999999" y="710.0" type="line"/>
      <point x="777.4744000000001" y="710.0" type="line"/>
      <point x="667.7608" y="435.0" type="line"/>
      <point x="673.2732000000001" y="434.0" type="line"/>
      <point x="570.0196000000001" y="710.0" type="line"/>
      <point x="451.8912" y="710.0" type="line"/>
      <point x="451.8912" y="685.494" type="line"/>
      <point x="458.8112" y="685.494" type="line" smooth="yes"/>
      <point x="483.49120000000005" y="685.494"/>
      <point x="503.33400000000006" y="683.494"/>
      <point x="503.33400000000006" y="669.494" type="curve" smooth="yes"/>
      <point x="503.33400000000006" y="436.50600000000003" type="line" smooth="yes"/>
      <point x="503.33400000000006" y="423.50600000000003"/>
      <point x="483.49120000000005" y="419.50600000000003"/>
      <point x="458.8112" y="419.50600000000003" type="curve"/>
      <point x="451.8912" y="419.50600000000003" type="line"/>
    </contour>
  </outline>
</glyph>
<glyph name="approxequal" format="2">
  <advance width="650.1600000000001"/>
  <unicode hex="2248"/>
  <outline>
    <contour>
      <point x="428.9132" y="326.448" type="curve" smooth="yes"/>
      <point x="508.4628" y="326.448"/>
      <point x="535.6984" y="393.218"/>
      <point x="552.5844000000001" y="444.322" type="curve"/>
      <point x="522.2964" y="452.782" type="line"/>
      <point x="513.8272000000001" y="425.322"/>
      <point x="493.4048" y="360.334"/>
      <point x="427.34000000000003" y="360.334" type="curve" smooth="yes"/>
      <point x="338.5584" y="360.334"/>
      <point x="307.78639999999996" y="454.23"/>
      <point x="200.8244" y="454.23" type="curve" smooth="yes"/>
      <point x="120.778" y="454.23"/>
      <point x="82.9204" y="395.276"/>
      <point x="72.0372" y="339.218" type="curve"/>
      <point x="103.2424" y="331.712" type="line"/>
      <point x="112.6224" y="370.758"/>
      <point x="136.836" y="420.39"/>
      <point x="201.9008" y="420.39" type="curve" smooth="yes"/>
      <point x="285.5536" y="420.39"/>
      <point x="328.6228" y="326.448"/>
    </contour>
    <contour>
      <point x="428.9132" y="119.494" type="curve" smooth="yes"/>
      <point x="508.4628" y="119.494"/>
      <point x="535.6984" y="186.264"/>
      <point x="552.5844000000001" y="237.368" type="curve"/>
      <point x="522.2964" y="245.874" type="line"/>
      <point x="513.4132000000001" y="218.368"/>
      <point x="493.4048" y="153.38"/>
      <point x="427.34000000000003" y="153.38" type="curve" smooth="yes"/>
      <point x="338.5584" y="153.38"/>
      <point x="307.78639999999996" y="247.276"/>
      <point x="200.8244" y="247.276" type="curve" smooth="yes"/>
      <point x="120.778" y="247.276"/>
      <point x="82.9204" y="188.322"/>
      <point x="72.0372" y="132.264" type="curve"/>
      <point x="103.2424" y="124.804" type="line"/>
      <point x="112.6224" y="163.804"/>
      <point x="136.836" y="213.436"/>
      <point x="201.9008" y="213.436" type="curve" smooth="yes"/>
      <point x="285.5536" y="213.436"/>
      <point x="328.6228" y="119.494"/>
    </contour>
  </outline>
</glyph>
<glyph name="hook" format="2">
  <advance width="592.34"/>
  <unicode hex="2440"/>
  <anchor x="265.22040000000004" y="517.0" name="_top"/>
  <outline>
    <contour>
      <point x="159.9844" y="691.138" type="line"/>
      <point x="167.1528" y="732.3679999999999"/>
      <point x="206.2588" y="767.506"/>
      <point x="279.30240000000003" y="767.506" type="curve" smooth="yes"/>
      <point x="343.7636" y="767.506"/>
      <point x="381.3728" y="744.092"/>
      <point x="381.3728" y="698.77" type="curve" smooth="yes"/>
      <point x="381.3728" y="649.218"/>
      <point x="324.1692" y="623.264"/>
      <point x="258.88" y="620.126" type="curve"/>
      <point x="288.5232" y="646.218" type="line"/>
      <point x="288.5232" y="579.448" type="line"/>
      <point x="246.6132" y="579.448" type="line"/>
      <point x="246.6132" y="645.678" type="line"/>
      <point x="300.228" y="647.7239999999999"/>
      <point x="338.82439999999997" y="662.908"/>
      <point x="338.82439999999997" y="697.7239999999999" type="curve" smooth="yes"/>
      <point x="338.82439999999997" y="724.586"/>
      <point x="315.942" y="740.54"/>
      <point x="279.3852" y="740.54" type="curve" smooth="yes"/>
      <point x="227.82920000000001" y="740.54"/>
      <point x="210.36360000000002" y="718.816"/>
      <point x="203.1124" y="691.138" type="curve"/>
    </contour>
  </outline>
</glyph>
<glyph name="uni25B5" format="2">
  <advance width="968.32"/>
  <unicode hex="25B5"/>
  <outline>
    <contour>
      <point x="23.22" y="0.0" type="line"/>
      <point x="945.1" y="0.0" type="line"/>
      <point x="484.16" y="715.0" type="line"/>
    </contour>
    <contour>
      <point x="132.4" y="63.0" type="line"/>
      <point x="141.78" y="44.0" type="line"/>
      <point x="491.08000000000004" y="592.0" type="line"/>
      <point x="477.24" y="592.0" type="line"/>
      <point x="826.54" y="44.0" type="line"/>
      <point x="835.9200000000001" y="63.0" type="line"/>
    </contour>
  </outline>
</glyph>
<glyph name="lozenge" format="2">
  <advance width="747.1928"/>
  <unicode hex="25CA"/>
  <outline>
    <contour>
      <point x="379.4924" y="25.0" type="line"/>
      <point x="79.9332" y="372.54" type="line"/>
      <point x="79.9332" y="337.46" type="line"/>
      <point x="379.4924" y="685.0" type="line"/>
      <point x="368.326" y="685.0" type="line"/>
      <point x="667.8024" y="337.46" type="line"/>
      <point x="667.8024" y="372.54" type="line"/>
      <point x="368.326" y="25.0" type="line"/>
    </contour>
    <contour>
      <point x="393.74" y="710.0" type="line"/>
      <point x="353.9956" y="710.0" type="line"/>
      <point x="59.4392" y="368.46" type="line"/>
      <point x="59.4392" y="341.54" type="line"/>
      <point x="353.9956" y="0.0" type="line"/>
      <point x="393.74" y="0.0" type="line"/>
      <point x="688.2964" y="341.54" type="line"/>
      <point x="688.2964" y="368.46" type="line"/>
    </contour>
  </outline>
</glyph>
<glyph name="circumflex_hook" format="2">
  <advance width="592.4228"/>
  <anchor x="285.6428" y="559.0" name="_top"/>
  <outline>
    <contour>
      <point x="377.9608" y="796.954" type="line"/>
      <point x="386.2947476180704" y="834.138397714528"/>
      <point x="419.6924" y="871.0"/>
      <point x="494.6468" y="871.0" type="curve" smooth="yes"/>
      <point x="562.5616" y="871.0"/>
      <point x="597.7108000000001" y="844.954"/>
      <point x="597.7108000000001" y="801.862" type="curve"/>
      <point x="597.7108000000001" y="753.0242926829269"/>
      <point x="541.7691354364707" y="726.9224052988981"/>
      <point x="478.9724" y="721.908" type="curve"/>
      <point x="505.16200000000003" y="750.7239999999999" type="line"/>
      <point x="505.16200000000003" y="687.322" type="line"/>
      <point x="463.58320000000003" y="687.322" type="line"/>
      <point x="463.58320000000003" y="750.138" type="line"/>
      <point x="516.5284377675355" y="755.3321695856678"/>
      <point x="552.6196" y="768.184"/>
      <point x="552.6196" y="799.862" type="curve"/>
      <point x="552.6196" y="825.123076923077"/>
      <point x="533.6572" y="842.356"/>
      <point x="494.7296" y="842.356" type="curve" smooth="yes"/>
      <point x="444.6409966101695" y="842.356"/>
      <point x="429.53553453096237" y="820.8153528612247"/>
      <point x="421.1716" y="796.954" type="curve"/>
    </contour>
    <component base="circumflex" xOffset="47.67440000000001"/>
  </outline>
</glyph>
<glyph name="circumflex_hook.uc" format="2">
  <advance width="591.88"/>
  <anchor x="282.9344" y="694.0" name="_top"/>
  <outline>
    <contour>
      <point x="374.6488" y="942.862" type="line"/>
      <point x="384.6084" y="980.046"/>
      <point x="420.00600000000003" y="1016.862"/>
      <point x="491.1692" y="1016.862" type="curve" smooth="yes"/>
      <point x="558.0012" y="1016.862"/>
      <point x="593.9848" y="992.7239999999999"/>
      <point x="593.9848" y="948.678" type="curve" smooth="yes"/>
      <point x="593.9848" y="899.494"/>
      <point x="538.2412" y="877.494"/>
      <point x="475.4948" y="876.356" type="curve"/>
      <point x="500.6016" y="902.31" type="line"/>
      <point x="500.6016" y="838.908" type="line"/>
      <point x="461.1884" y="838.908" type="line"/>
      <point x="461.1884" y="900.77" type="line"/>
      <point x="514.3828000000001" y="903.7239999999999"/>
      <point x="548.8936" y="915.908"/>
      <point x="548.8936" y="948.586" type="curve" smooth="yes"/>
      <point x="548.8936" y="974.31"/>
      <point x="530.1795999999999" y="988.218"/>
      <point x="491.252" y="988.218" type="curve" smooth="yes"/>
      <point x="444.4504" y="988.218"/>
      <point x="427.8192" y="966.6320000000001"/>
      <point x="417.8596" y="942.862" type="curve"/>
    </contour>
    <component base="circumflex.uc" xOffset="46.174800000000005"/>
  </outline>
</glyph>
<glyph name="dollar.proportional" format="2">
  <advance width="712.338"/>
  <outline>
    <contour>
      <point x="344.7748" y="787.138" type="line"/>
      <point x="344.7748" y="687.08" type="line"/>
      <point x="344.7748" y="678.942" type="line"/>
      <point x="344.7748" y="26.92" type="line"/>
      <point x="344.7748" y="21.782" type="line"/>
      <point x="344.7748" y="-120.0" type="line"/>
      <point x="383.5624" y="-120.0" type="line"/>
      <point x="383.5624" y="18.828" type="line"/>
      <point x="383.5624" y="26.104" type="line"/>
      <point x="383.5624" y="676.31" type="line"/>
      <point x="383.5624" y="684.31" type="line"/>
      <point x="383.5624" y="787.138" type="line"/>
    </contour>
    <contour>
      <point x="370.3784" y="39.426" type="curve" smooth="yes"/>
      <point x="257.5792" y="39.426"/>
      <point x="142.538" y="76.966"/>
      <point x="93.43560000000001" y="133.104" type="curve"/>
      <point x="91.7208" y="114.196"/>
      <point x="104.7328" y="103.77"/>
      <point x="121.9196" y="88.276" type="curve"/>
      <point x="121.9196" y="188.426" type="line"/>
      <point x="71.316" y="188.426" type="line"/>
      <point x="71.316" y="97.092" type="line"/>
      <point x="122.0504" y="55.77"/>
      <point x="238.97840000000002" y="8.184000000000001"/>
      <point x="369.9644" y="8.184000000000001" type="curve" smooth="yes"/>
      <point x="521.7104" y="8.184000000000001"/>
      <point x="641.6016" y="72.23"/>
      <point x="641.6016" y="195.598" type="curve" smooth="yes"/>
      <point x="641.6016" y="317.598"/>
      <point x="507.5392" y="354.012"/>
      <point x="397.7272" y="379.104" type="curve" smooth="yes"/>
      <point x="271.96840000000003" y="405.92"/>
      <point x="144.75600000000003" y="427.782"/>
      <point x="144.75600000000003" y="531.908" type="curve" smooth="yes"/>
      <point x="144.75600000000003" y="618.264"/>
      <point x="230.8688" y="666.804"/>
      <point x="364.8484" y="666.804" type="curve" smooth="yes"/>
      <point x="470.2676" y="666.804"/>
      <point x="547.338" y="638.298"/>
      <point x="584.812" y="600.62" type="curve"/>
      <point x="587.9408000000001" y="621.3439999999999"/>
      <point x="570.5516" y="643.896"/>
      <point x="559.4504" y="650.666" type="curve"/>
      <point x="559.4504" y="549.666" type="line"/>
      <point x="612.7164" y="549.666" type="line"/>
      <point x="612.7164" y="630.862" type="line"/>
      <point x="574.408" y="661.678"/>
      <point x="481.11400000000003" y="698.0"/>
      <point x="365.5108" y="698.0" type="curve" smooth="yes"/>
      <point x="207.09320000000002" y="698.0"/>
      <point x="107.8728" y="634.046"/>
      <point x="107.8728" y="528.678" type="curve" smooth="yes"/>
      <point x="107.8728" y="407.264"/>
      <point x="237.558" y="375.356"/>
      <point x="343.3672" y="350.264" type="curve" smooth="yes"/>
      <point x="471.9172" y="322.448"/>
      <point x="604.6724" y="303.356"/>
      <point x="604.6724" y="188.184" type="curve" smooth="yes"/>
      <point x="604.6724" y="84.782"/>
      <point x="502.726" y="39.426"/>
    </contour>
  </outline>
</glyph>
<glyph name="dong.proportional" format="2">
  <advance width="642.2112"/>
  <outline>
    <contour>
      <point x="89.96440000000001" y="250.0" type="curve" smooth="yes"/>
      <point x="89.96440000000001" y="391.356"/>
      <point x="163.492" y="486.758"/>
      <point x="294.3364" y="486.758" type="curve" smooth="yes"/>
      <point x="393.5872" y="486.758"/>
      <point x="462.744" y="423.586"/>
      <point x="500.02200000000005" y="324.448" type="curve"/>
      <point x="521.172" y="345.49399999999997" type="line"/>
      <point x="471.96479999999997" y="457.276"/>
      <point x="407.8936" y="518.0"/>
      <point x="290.8764" y="518.0" type="curve" smooth="yes"/>
      <point x="145.6668" y="518.0"/>
      <point x="45.7776" y="408.046"/>
      <point x="45.7776" y="250.0" type="curve" smooth="yes"/>
      <point x="45.7776" y="93.04599999999999"/>
      <point x="134.62439999999998" y="-10.954"/>
      <point x="274.7484" y="-10.954" type="curve" smooth="yes"/>
      <point x="400.8908" y="-10.954"/>
      <point x="470.0844000000001" y="61.494"/>
      <point x="531.0028" y="169.41400000000002" type="curve"/>
      <point x="515.1868" y="196.184" type="line"/>
      <point x="461.6612" y="95.23"/>
      <point x="388.71320000000003" y="20.288"/>
      <point x="281.6684" y="20.288" type="curve" smooth="yes"/>
      <point x="155.9096" y="20.288"/>
      <point x="89.96440000000001" y="108.828"/>
    </contour>
    <contour>
      <point x="493.2152" y="711.15" type="line"/>
      <point x="493.2152" y="136.034" type="line"/>
      <point x="492.30440000000004" y="131.126" type="line"/>
      <point x="492.30440000000004" y="0.0" type="line"/>
      <point x="631.4476" y="0.0" type="line"/>
      <point x="631.4476" y="27.828" type="line"/>
      <point x="630.4476" y="27.828" type="line"/>
      <point x="574.6276" y="27.828"/>
      <point x="534.1904" y="34.827999999999996"/>
      <point x="534.1904" y="63.827999999999996" type="curve" smooth="yes"/>
      <point x="534.1904" y="711.15" type="line"/>
    </contour>
    <contour>
      <point x="106.3648" y="-126.092" type="line"/>
      <point x="106.3648" y="-157.472" type="line"/>
      <point x="562.8336" y="-157.472" type="line"/>
      <point x="562.8336" y="-126.092" type="line"/>
    </contour>
    <contour>
      <point x="268.4844" y="614.414" type="line"/>
      <point x="268.4844" y="583.402" type="line"/>
      <point x="629.212" y="583.402" type="line"/>
      <point x="629.212" y="614.414" type="line"/>
    </contour>
  </outline>
</glyph>
<glyph name="eight.den" format="2">
  <advance width="373.1888"/>
  <outline>
    <contour>
      <point x="186.5944" y="186.138" type="curve" smooth="yes"/>
      <point x="108.04480000000001" y="186.138"/>
      <point x="48.5928" y="152.09199999999998"/>
      <point x="48.5928" y="95.908" type="curve" smooth="yes"/>
      <point x="48.5928" y="35.046"/>
      <point x="106.1276" y="-6.0"/>
      <point x="186.5944" y="-6.0" type="curve" smooth="yes"/>
      <point x="267.6868" y="-6.0"/>
      <point x="325.22159999999997" y="35.046"/>
      <point x="325.22159999999997" y="95.908" type="curve" smooth="yes"/>
      <point x="325.22159999999997" y="152.09199999999998"/>
      <point x="265.3096" y="186.138"/>
    </contour>
    <contour>
      <point x="186.5944" y="167.678" type="curve" smooth="yes"/>
      <point x="239.497775" y="167.678"/>
      <point x="276.1736" y="142.816"/>
      <point x="276.1736" y="96.04599999999999" type="curve" smooth="yes"/>
      <point x="276.1736" y="50.368"/>
      <point x="236.789375" y="22.598"/>
      <point x="186.5944" y="22.598" type="curve" smooth="yes"/>
      <point x="136.399425" y="22.598"/>
      <point x="97.558" y="50.368"/>
      <point x="97.558" y="96.04599999999999" type="curve" smooth="yes"/>
      <point x="97.558" y="142.816"/>
      <point x="134.3218" y="167.678"/>
    </contour>
    <contour>
      <point x="186.5944" y="346.0" type="curve" smooth="yes"/>
      <point x="117.342" y="346.0"/>
      <point x="65.396" y="310.0"/>
      <point x="65.396" y="261.81600000000003" type="curve" smooth="yes"/>
      <point x="65.396" y="209.816"/>
      <point x="117.342" y="177.862"/>
      <point x="186.5944" y="177.862" type="curve" smooth="yes"/>
      <point x="256.5552" y="177.862"/>
      <point x="307.8756" y="209.816"/>
      <point x="307.8756" y="261.81600000000003" type="curve" smooth="yes"/>
      <point x="307.8756" y="310.0"/>
      <point x="256.5552" y="346.0"/>
    </contour>
    <contour>
      <point x="186.5944" y="193.322" type="curve" smooth="yes"/>
      <point x="143.24261176474158" y="193.322"/>
      <point x="112.398" y="217.046"/>
      <point x="112.398" y="256.77" type="curve" smooth="yes"/>
      <point x="112.398" y="295.586"/>
      <point x="143.24261176474158" y="318.402"/>
      <point x="186.5944" y="318.402" type="curve" smooth="yes"/>
      <point x="230.11828235285998" y="318.402"/>
      <point x="260.8736" y="295.586"/>
      <point x="260.8736" y="256.77" type="curve" smooth="yes"/>
      <point x="260.8736" y="217.046"/>
      <point x="230.11828235285998" y="193.322"/>
    </contour>
  </outline>
</glyph>
<glyph name="f.short" format="2">
  <advance width="425.3592"/>
  <outline>
    <contour>
      <point x="40.1888" y="508.0" type="line"/>
      <point x="40.1888" y="479.62" type="line"/>
      <point x="384.76279999999997" y="479.62" type="line"/>
      <point x="384.76279999999997" y="508.0" type="line"/>
    </contour>
    <contour>
      <point x="202.184" y="37.827999999999996" type="curve" smooth="yes"/>
      <point x="202.184" y="604.39" type="line" smooth="yes"/>
      <point x="202.184" y="696.85"/>
      <point x="247.57799999999997" y="720.804"/>
      <point x="310.732" y="720.804" type="curve" smooth="yes"/>
      <point x="348.45439999999996" y="720.804"/>
      <point x="367.22080000000005" y="712.85"/>
      <point x="383.1068" y="707.712" type="curve"/>
      <point x="383.1068" y="742.0" type="line"/>
      <point x="369.59799999999996" y="746.092"/>
      <point x="351.1628" y="752.0"/>
      <point x="313.3576" y="752.0" type="curve" smooth="yes"/>
      <point x="228.9708" y="752.0"/>
      <point x="161.2088" y="711.908"/>
      <point x="161.2088" y="604.39" type="curve" smooth="yes"/>
      <point x="161.2088" y="63.827999999999996" type="line" smooth="yes"/>
      <point x="161.2088" y="34.827999999999996"/>
      <point x="122.6888" y="27.828"/>
      <point x="58.948800000000006" y="27.828" type="curve" smooth="yes"/>
      <point x="46.1088" y="27.828" type="line"/>
      <point x="46.1088" y="0.0" type="line"/>
      <point x="327.12120000000004" y="0.0" type="line"/>
      <point x="327.12120000000004" y="27.828" type="line"/>
      <point x="312.364" y="27.828" type="line" smooth="yes"/>
      <point x="249.624" y="27.828"/>
      <point x="202.184" y="30.828"/>
    </contour>
  </outline>
</glyph>
<glyph name="f_b" format="2">
  <advance width="1115.1044"/>
  <outline>
    <contour>
      <point x="1020.266" y="257.0" type="curve" smooth="yes"/>
      <point x="1020.266" y="115.736"/>
      <point x="944.2783999999999" y="21.242"/>
      <point x="802.64" y="21.242" type="curve" smooth="yes"/>
      <point x="700.9292" y="21.242"/>
      <point x="623.9352" y="85.46"/>
      <point x="574.3664" y="183.552" type="curve"/>
      <point x="553.2992" y="162.506" type="line"/>
      <point x="614.5488" y="51.678"/>
      <point x="686.6228000000001" y="-10.0"/>
      <point x="806.1828" y="-10.0" type="curve" smooth="yes"/>
      <point x="962.1035999999999" y="-10.0"/>
      <point x="1064.4528" y="99.0"/>
      <point x="1064.4528" y="257.0" type="curve" smooth="yes"/>
      <point x="1064.4528" y="414.0"/>
      <point x="966.6464000000001" y="518.0"/>
      <point x="815.5628" y="518.0" type="curve" smooth="yes"/>
      <point x="687.6687999999999" y="518.0"/>
      <point x="614.8864000000001" y="449.414"/>
      <point x="542.76" y="337.632" type="curve"/>
      <point x="558.576" y="310.81600000000003" type="line"/>
      <point x="623.8524" y="415.632"/>
      <point x="700.8464" y="486.758"/>
      <point x="808.6428000000001" y="486.758" type="curve" smooth="yes"/>
      <point x="946.9868" y="486.758"/>
      <point x="1020.266" y="398.218"/>
    </contour>
    <contour>
      <point x="539.4896" y="702.816" type="line"/>
      <point x="539.4896" y="-3.0" type="line"/>
      <point x="564.738" y="-3.0" type="line"/>
      <point x="581.624" y="125.08" type="line"/>
      <point x="580.4648" y="140.08" type="line"/>
      <point x="580.4648" y="735.0" type="line"/>
      <point x="479.1508" y="735.0" type="line"/>
    </contour>
    <contour>
      <point x="40.1888" y="508.0" type="line"/>
      <point x="40.1888" y="479.62" type="line"/>
      <point x="391.2624" y="479.62" type="line"/>
      <point x="391.2624" y="508.0" type="line"/>
    </contour>
    <contour>
      <point x="202.184" y="594.85" type="line" smooth="yes"/>
      <point x="202.184" y="693.9879999999999"/>
      <point x="257.4612" y="720.804"/>
      <point x="372.082" y="720.804" type="curve" smooth="yes"/>
      <point x="439.0032" y="720.804"/>
      <point x="507.11400000000003" y="705.2520000000001"/>
      <point x="563.0472" y="670.7" type="curve"/>
      <point x="571.924" y="710.448" type="line"/>
      <point x="528.944" y="727.184"/>
      <point x="465.204" y="752.0"/>
      <point x="371.8336" y="752.0" type="curve" smooth="yes"/>
      <point x="238.6884" y="752.0"/>
      <point x="161.2088" y="709.046"/>
      <point x="161.2088" y="594.85" type="curve" smooth="yes"/>
      <point x="161.2088" y="63.827999999999996" type="line" smooth="yes"/>
      <point x="161.2088" y="34.827999999999996"/>
      <point x="122.6888" y="27.828"/>
      <point x="58.948800000000006" y="27.828" type="curve" smooth="yes"/>
      <point x="46.1088" y="27.828" type="line"/>
      <point x="46.1088" y="0.0" type="line"/>
      <point x="328.2804" y="0.0" type="line"/>
      <point x="328.2804" y="27.828" type="line"/>
      <point x="313.4404" y="27.828" type="line" smooth="yes"/>
      <point x="250.03799999999998" y="27.828"/>
      <point x="202.184" y="30.828"/>
      <point x="202.184" y="37.827999999999996" type="curve" smooth="yes"/>
    </contour>
  </outline>
</glyph>
<glyph name="f_j.alt" format="2">
  <advance width="693.436"/>
  <outline>
    <contour>
      <point x="40.1888" y="508.0" type="line"/>
      <point x="40.1888" y="479.62" type="line"/>
      <point x="506.7" y="479.62" type="line"/>
      <point x="506.7" y="508.0" type="line"/>
    </contour>
    <contour>
      <point x="539.4896" y="-73.62" type="line" smooth="yes"/>
      <point x="539.4896" y="-170.712"/>
      <point x="493.0496" y="-202.62"/>
      <point x="418.6812" y="-202.62" type="curve" smooth="yes"/>
      <point x="374.7904" y="-202.62"/>
      <point x="342.7764" y="-193.804"/>
      <point x="316.0964" y="-184.85" type="curve"/>
      <point x="316.0964" y="-220.184" type="line"/>
      <point x="338.48199999999997" y="-229.138"/>
      <point x="369.0424" y="-236.0"/>
      <point x="418.35" y="-236.0" type="curve" smooth="yes"/>
      <point x="496.6576" y="-236.0"/>
      <point x="580.4648" y="-203.54"/>
      <point x="580.4648" y="-73.62" type="curve" smooth="yes"/>
      <point x="580.4648" y="508.0" type="line"/>
      <point x="443.64" y="508.0" type="line"/>
      <point x="443.64" y="479.62" type="line"/>
      <point x="453.52959999999996" y="479.62" type="line" smooth="yes"/>
      <point x="512.7267999999999" y="479.62"/>
      <point x="539.4896" y="465.528"/>
      <point x="539.4896" y="436.528" type="curve" smooth="yes"/>
    </contour>
    <contour>
      <point x="202.184" y="37.827999999999996" type="curve" smooth="yes"/>
      <point x="202.184" y="578.586" type="line" smooth="yes"/>
      <point x="202.184" y="689.482"/>
      <point x="284.076" y="720.804"/>
      <point x="387.4712" y="720.804" type="curve" smooth="yes"/>
      <point x="457.13759999999996" y="720.804"/>
      <point x="512.2888" y="706.482"/>
      <point x="549.7628" y="673.7579999999999" type="curve"/>
      <point x="555.8548000000001" y="701.298"/>
      <point x="542.1279999999999" y="704.3679999999999"/>
      <point x="520.6928" y="725.31" type="curve"/>
      <point x="520.6928" y="637.85" type="line"/>
      <point x="571.9956" y="637.85" type="line"/>
      <point x="571.9956" y="707.2760000000001" type="line"/>
      <point x="537.9879999999999" y="730.6320000000001"/>
      <point x="478.95000000000005" y="752.0"/>
      <point x="387.4712" y="752.0" type="curve" smooth="yes"/>
      <point x="261.0088" y="752.0"/>
      <point x="161.2088" y="706.08"/>
      <point x="161.2088" y="578.586" type="curve" smooth="yes"/>
      <point x="161.2088" y="63.827999999999996" type="line"/>
      <point x="161.2088" y="34.827999999999996"/>
      <point x="122.6888" y="27.828"/>
      <point x="58.948800000000006" y="27.828" type="curve" smooth="yes"/>
      <point x="46.1088" y="27.828" type="line"/>
      <point x="46.1088" y="0.0" type="line"/>
      <point x="328.2804" y="0.0" type="line"/>
      <point x="328.2804" y="27.828" type="line"/>
      <point x="313.4404" y="27.828" type="line" smooth="yes"/>
      <point x="250.03799999999998" y="27.828"/>
      <point x="202.184" y="30.828"/>
    </contour>
  </outline>
</glyph>
<glyph name="f_l" format="2">
  <advance width="720.6892"/>
  <outline>
    <contour>
      <point x="40.1888" y="508.0" type="line"/>
      <point x="40.1888" y="479.62" type="line"/>
      <point x="391.2624" y="479.62" type="line"/>
      <point x="391.2624" y="508.0" type="line"/>
    </contour>
    <contour>
      <point x="539.4896" y="37.827999999999996" type="line"/>
      <point x="539.4896" y="30.828"/>
      <point x="487.1296" y="27.828"/>
      <point x="455.0724" y="27.828" type="curve" smooth="yes"/>
      <point x="442.23240000000004" y="27.828" type="line"/>
      <point x="442.23240000000004" y="0.0" type="line"/>
      <point x="677.8048" y="0.0" type="line"/>
      <point x="677.8048" y="27.828" type="line"/>
      <point x="675.8048" y="27.828" type="line" smooth="yes"/>
      <point x="619.9848" y="27.828"/>
      <point x="580.4648" y="34.827999999999996"/>
      <point x="580.4648" y="63.827999999999996" type="curve"/>
      <point x="580.4648" y="735.0" type="line"/>
      <point x="477.41200000000003" y="735.0" type="line"/>
      <point x="539.4896" y="702.678" type="line"/>
    </contour>
    <contour>
      <point x="328.2804" y="0.0" type="line"/>
      <point x="328.2804" y="27.828" type="line"/>
      <point x="313.4404" y="27.828" type="line" smooth="yes"/>
      <point x="250.0902947368944" y="27.828"/>
      <point x="202.184" y="30.828"/>
      <point x="202.184" y="37.827999999999996" type="curve" smooth="yes"/>
      <point x="202.184" y="594.85" type="line" smooth="yes"/>
      <point x="202.184" y="693.9879999999999"/>
      <point x="257.4612" y="720.804"/>
      <point x="372.082" y="720.804" type="curve" smooth="yes"/>
      <point x="440.0796" y="720.804"/>
      <point x="508.27320000000003" y="705.712"/>
      <point x="563.0472" y="670.7" type="curve"/>
      <point x="571.924" y="710.448" type="line"/>
      <point x="528.944" y="727.184"/>
      <point x="465.204" y="752.0"/>
      <point x="371.8336" y="752.0" type="curve" smooth="yes"/>
      <point x="238.6884" y="752.0"/>
      <point x="161.2088" y="709.046"/>
      <point x="161.2088" y="594.85" type="curve" smooth="yes"/>
      <point x="161.2088" y="63.827999999999996" type="line"/>
      <point x="161.2088" y="34.827999999999996"/>
      <point x="122.6888" y="27.828"/>
      <point x="58.948800000000006" y="27.828" type="curve" smooth="yes"/>
      <point x="46.1088" y="27.828" type="line"/>
      <point x="46.1088" y="0.0" type="line"/>
    </contour>
  </outline>
</glyph>
<glyph name="fi.alt" format="2">
  <advance width="720.1924"/>
  <outline>
    <contour>
      <point x="40.1888" y="508.0" type="line"/>
      <point x="40.1888" y="479.62" type="line"/>
      <point x="506.7" y="479.62" type="line"/>
      <point x="506.7" y="508.0" type="line"/>
    </contour>
    <contour>
      <point x="539.4896" y="37.827999999999996" type="line" smooth="yes"/>
      <point x="539.4896" y="30.828"/>
      <point x="487.1296" y="27.828"/>
      <point x="455.0724" y="27.828" type="curve" smooth="yes"/>
      <point x="442.23240000000004" y="27.828" type="line"/>
      <point x="442.23240000000004" y="0.0" type="line"/>
      <point x="677.8048" y="0.0" type="line"/>
      <point x="677.8048" y="27.828" type="line"/>
      <point x="675.722" y="27.828" type="line" smooth="yes"/>
      <point x="619.902" y="27.828"/>
      <point x="580.4648" y="34.827999999999996"/>
      <point x="580.4648" y="63.827999999999996" type="curve" smooth="yes"/>
      <point x="580.4648" y="508.0" type="line"/>
      <point x="442.3152" y="508.0" type="line"/>
      <point x="442.3152" y="479.62" type="line"/>
      <point x="453.52959999999996" y="479.62" type="line" smooth="yes"/>
      <point x="512.7267999999999" y="479.62"/>
      <point x="539.4896" y="465.528"/>
      <point x="539.4896" y="436.528" type="curve" smooth="yes"/>
    </contour>
    <contour>
      <point x="161.2088" y="63.827999999999996" type="line" smooth="yes"/>
      <point x="161.2088" y="34.827999999999996"/>
      <point x="122.6888" y="27.828"/>
      <point x="58.948800000000006" y="27.828" type="curve" smooth="yes"/>
      <point x="46.1088" y="27.828" type="line"/>
      <point x="46.1088" y="0.0" type="line"/>
      <point x="328.2804" y="0.0" type="line"/>
      <point x="328.2804" y="27.828" type="line"/>
      <point x="313.4404" y="27.828" type="line" smooth="yes"/>
      <point x="250.03799999999998" y="27.828"/>
      <point x="202.184" y="30.828"/>
      <point x="202.184" y="37.827999999999996" type="curve" smooth="yes"/>
      <point x="202.184" y="578.586" type="line" smooth="yes"/>
      <point x="202.184" y="689.482"/>
      <point x="284.076" y="720.804"/>
      <point x="387.4712" y="720.804" type="curve" smooth="yes"/>
      <point x="457.13759999999996" y="720.804"/>
      <point x="512.2888" y="706.482"/>
      <point x="549.7628" y="673.7579999999999" type="curve"/>
      <point x="555.8548000000001" y="701.298"/>
      <point x="542.1279999999999" y="704.3679999999999"/>
      <point x="520.6928" y="725.31" type="curve"/>
      <point x="520.6928" y="637.85" type="line"/>
      <point x="571.9956" y="637.85" type="line"/>
      <point x="571.9956" y="707.2760000000001" type="line"/>
      <point x="537.9879999999999" y="730.6320000000001"/>
      <point x="478.95000000000005" y="752.0"/>
      <point x="387.4712" y="752.0" type="curve" smooth="yes"/>
      <point x="261.0088" y="752.0"/>
      <point x="161.2088" y="706.08"/>
      <point x="161.2088" y="578.586" type="curve" smooth="yes"/>
    </contour>
  </outline>
</glyph>
<glyph name="florin.proportional" format="2">
  <advance width="597.0548"/>
  <outline>
    <contour>
      <point x="146.98520000000002" y="508.0" type="line"/>
      <point x="141.14800000000002" y="476.896" type="line"/>
      <point x="555.1448" y="476.896" type="line"/>
      <point x="560.982" y="508.0" type="line"/>
    </contour>
    <contour>
      <point x="253.764" y="56.0" type="curve" smooth="yes"/>
      <point x="338.724" y="567.69" type="line" smooth="yes"/>
      <point x="357.438" y="681.494"/>
      <point x="415.16880000000003" y="721.034"/>
      <point x="505.9136" y="721.034" type="curve" smooth="yes"/>
      <point x="545.5164" y="721.034"/>
      <point x="580.6592" y="711.172"/>
      <point x="618.802" y="699.172" type="curve"/>
      <point x="624.722" y="733.69" type="line"/>
      <point x="594.5820000000001" y="745.69"/>
      <point x="546.5164" y="752.69"/>
      <point x="504.9136" y="752.69" type="curve" smooth="yes"/>
      <point x="389.304" y="752.69"/>
      <point x="318.42600000000004" y="695.69"/>
      <point x="298.666" y="573.69" type="curve" smooth="yes"/>
      <point x="216.58" y="56.31" type="line" smooth="yes"/>
      <point x="185.35719999999998" y="-142.184"/>
      <point x="107.5416" y="-204.344"/>
      <point x="14.223600000000001" y="-204.344" type="curve" smooth="yes"/>
      <point x="-35.6636" y="-204.344"/>
      <point x="-77.26" y="-190.666"/>
      <point x="-103.1884" y="-181.758" type="curve"/>
      <point x="-109.10839999999999" y="-216.276" type="line"/>
      <point x="-84.6832" y="-226.138"/>
      <point x="-44.878" y="-236.0"/>
      <point x="14.472" y="-236.0" type="curve" smooth="yes"/>
      <point x="136.5288" y="-236.0"/>
      <point x="218.6212" y="-155.322"/>
    </contour>
  </outline>
</glyph>
<glyph name="four.lin" format="2">
  <advance width="650.1600000000001"/>
  <outline>
    <contour>
      <point x="44.3048" y="212.54" type="line"/>
      <point x="624.2316000000001" y="212.54" type="line"/>
      <point x="624.2316000000001" y="249.012" type="line"/>
      <point x="65.44839999999999" y="249.012" type="line"/>
      <point x="69.3288" y="225.276" type="line"/>
      <point x="452.90240000000006" y="703.2520000000001" type="line"/>
      <point x="466.5464" y="710.0" type="line"/>
      <point x="412.87919999999997" y="710.0" type="line"/>
      <point x="44.3048" y="252.196" type="line"/>
    </contour>
    <contour>
      <point x="280.0412" y="0.0" type="line"/>
      <point x="612.8516" y="0.0" type="line"/>
      <point x="612.8516" y="27.92" type="line"/>
      <point x="602.2536" y="27.92" type="line" smooth="yes"/>
      <point x="526.4775999999999" y="27.92"/>
      <point x="474.7496" y="34.92"/>
      <point x="474.7496" y="63.92" type="curve" smooth="yes"/>
      <point x="474.7496" y="710.0" type="line"/>
      <point x="434.1884" y="710.0" type="line"/>
      <point x="434.1884" y="691.896" type="line"/>
      <point x="434.1884" y="63.92" type="line" smooth="yes"/>
      <point x="434.1884" y="34.92"/>
      <point x="387.33439999999996" y="27.92"/>
      <point x="310.678" y="27.92" type="curve" smooth="yes"/>
      <point x="280.0412" y="27.92" type="line"/>
    </contour>
  </outline>
</glyph>
<glyph name="four.old" format="2">
  <advance width="650.1600000000001"/>
  <outline>
    <contour>
      <point x="43.2284" y="51.276" type="line"/>
      <point x="623.652" y="51.276" type="line"/>
      <point x="623.652" y="87.748" type="line"/>
      <point x="64.372" y="87.748" type="line"/>
      <point x="68.1696" y="63.92" type="line"/>
      <point x="450.08720000000005" y="542.448" type="line"/>
      <point x="466.7948" y="548.0" type="line"/>
      <point x="411.6372" y="548.0" type="line"/>
      <point x="43.2284" y="90.84" type="line"/>
    </contour>
    <contour>
      <point x="473.34200000000004" y="-137.862" type="line"/>
      <point x="473.34200000000004" y="548.0" type="line"/>
      <point x="432.8636" y="548.0" type="line"/>
      <point x="432.8636" y="527.54" type="line"/>
      <point x="432.8636" y="-137.862" type="line"/>
    </contour>
  </outline>
</glyph>
<glyph name="horn" format="2">
  <anchor x="-334.2816" y="444.0" name="_top"/>
  <outline>
    <contour>
      <point x="-350.3568" y="485.86199999999997" type="curve"/>
      <point x="-192.12240000000003" y="494.942"/>
      <point x="-158.78839999999997" y="565.206"/>
      <point x="-149.5804" y="684.77" type="curve"/>
      <point x="-191.5492" y="684.77" type="line"/>
      <point x="-202.9228" y="545.322"/>
      <point x="-245.23399999999998" y="508.46"/>
      <point x="-445.75120000000004" y="508.46" type="curve"/>
      <point x="-446.9104" y="508.046"/>
      <point x="-349.2804" y="486.23"/>
    </contour>
  </outline>
</glyph>
<glyph name="liraTurkish" format="2">
  <advance width="651.7856"/>
  <outline>
    <contour>
      <point x="47.3508" y="378.656" type="line"/>
      <point x="47.3508" y="347.644" type="line"/>
      <point x="509.3672" y="525.46" type="line"/>
      <point x="509.3672" y="556.472" type="line"/>
    </contour>
    <contour>
      <point x="47.3508" y="213.656" type="line"/>
      <point x="47.3508" y="182.644" type="line"/>
      <point x="509.3672" y="360.46" type="line"/>
      <point x="509.3672" y="391.472" type="line"/>
    </contour>
    <contour>
      <point x="315.2796" y="31.242" type="curve" smooth="yes"/>
      <point x="199.7176" y="31.242" type="line"/>
      <point x="199.7176" y="643.218" type="line" smooth="yes"/>
      <point x="199.7176" y="672.218"/>
      <point x="242.94600000000003" y="679.218"/>
      <point x="303.5572" y="679.218" type="curve" smooth="yes"/>
      <point x="316.3972" y="679.218" type="line"/>
      <point x="316.3972" y="710.0" type="line"/>
      <point x="47.3508" y="710.0" type="line"/>
      <point x="47.3508" y="679.218" type="line"/>
      <point x="60.4392" y="679.218" type="line" smooth="yes"/>
      <point x="117.1764" y="679.218"/>
      <point x="159.23919999999998" y="672.218"/>
      <point x="159.23919999999998" y="643.218" type="curve" smooth="yes"/>
      <point x="159.23919999999998" y="66.782" type="line" smooth="yes"/>
      <point x="159.23919999999998" y="37.782000000000004"/>
      <point x="117.1764" y="30.782"/>
      <point x="60.4392" y="30.782" type="curve" smooth="yes"/>
      <point x="47.3508" y="30.782" type="line"/>
      <point x="47.3508" y="0.0" type="line"/>
      <point x="313.1444" y="0.0" type="line" smooth="yes"/>
      <point x="525.4952000000001" y="0.0"/>
      <point x="631.9667999999999" y="101.724"/>
      <point x="642.3468" y="269.322" type="curve"/>
      <point x="596.7588000000001" y="281.82800000000003" type="line"/>
      <point x="589.5075999999999" y="120.966"/>
      <point x="507.97080000000005" y="31.242"/>
    </contour>
  </outline>
</glyph>
<glyph name="one.den" format="2">
  <advance width="377.6056"/>
  <outline>
    <contour>
      <point x="216.462" y="52.092" type="curve" smooth="yes"/>
      <point x="216.462" y="341.0" type="line"/>
      <point x="193.42520000000002" y="341.0" type="line"/>
      <point x="170.2052" y="313.0"/>
      <point x="127.05959999999999" y="299.0"/>
      <point x="54.36" y="298.0" type="curve"/>
      <point x="54.36" y="262.54" type="line"/>
      <point x="120.1396" y="261.54"/>
      <point x="171.2052" y="277.54"/>
      <point x="185.58800000000002" y="311.54" type="curve"/>
      <point x="185.58800000000002" y="318.54"/>
      <point x="183.0452" y="315.54"/>
      <point x="173.6652" y="305.54" type="curve"/>
      <point x="173.6652" y="52.092" type="line" smooth="yes"/>
      <point x="173.6652" y="34.092"/>
      <point x="146.068" y="30.092"/>
      <point x="105.548" y="30.092" type="curve" smooth="yes"/>
      <point x="66.2" y="30.092" type="line"/>
      <point x="66.2" y="0.0" type="line"/>
      <point x="320.4672" y="0.0" type="line"/>
      <point x="320.4672" y="30.092" type="line"/>
      <point x="289.582" y="30.092" type="line" smooth="yes"/>
      <point x="245.602" y="30.092"/>
      <point x="216.462" y="34.092"/>
    </contour>
  </outline>
</glyph>
<glyph name="one.lin" format="2">
  <advance width="650.1600000000001"/>
  <outline>
    <contour>
      <point x="385.7436" y="63.92" type="curve" smooth="yes"/>
      <point x="385.7436" y="710.0" type="line"/>
      <point x="360.82640000000004" y="710.0" type="line"/>
      <point x="321.5548" y="658.046"/>
      <point x="240.2204" y="636.0"/>
      <point x="140.414" y="634.0" type="curve"/>
      <point x="140.414" y="602.62" type="line"/>
      <point x="232.30040000000002" y="600.62"/>
      <point x="329.7232" y="626.85"/>
      <point x="352.026" y="672.85" type="curve"/>
      <point x="357.946" y="685.85"/>
      <point x="361.0224" y="693.39"/>
      <point x="345.18240000000003" y="671.39" type="curve"/>
      <point x="345.18240000000003" y="63.92" type="line" smooth="yes"/>
      <point x="345.18240000000003" y="34.92"/>
      <point x="298.7424" y="27.92"/>
      <point x="223.1624" y="27.92" type="curve" smooth="yes"/>
      <point x="150.966" y="27.92" type="line"/>
      <point x="150.966" y="0.0" type="line"/>
      <point x="571.8348" y="0.0" type="line"/>
      <point x="571.8348" y="27.92" type="line"/>
      <point x="519.1436000000001" y="27.92" type="line" smooth="yes"/>
      <point x="436.6436" y="27.92"/>
      <point x="385.7436" y="34.92"/>
    </contour>
  </outline>
</glyph>
<glyph name="rupeeIndian" format="2">
  <advance width="651.7856"/>
  <outline>
    <contour>
      <point x="86.53960000000001" y="507.644" type="line"/>
      <point x="86.53960000000001" y="476.632" type="line"/>
      <point x="634.5224000000001" y="476.632" type="line"/>
      <point x="634.5224000000001" y="507.644" type="line"/>
    </contour>
    <contour>
      <point x="122.3576" y="273.46" type="line"/>
      <point x="176.9532" y="273.46" type="line" smooth="yes"/>
      <point x="355.80600000000004" y="273.46"/>
      <point x="470.078" y="362.414"/>
      <point x="470.078" y="496.13800000000003" type="curve" smooth="yes"/>
      <point x="470.078" y="591.77"/>
      <point x="408.24879999999996" y="666.356"/>
      <point x="281.21320000000003" y="684.494" type="curve"/>
      <point x="246.9444" y="698.54"/>
      <point x="194.2468" y="710.31"/>
      <point x="239.69320000000002" y="678.9879999999999" type="curve"/>
      <point x="634.5224000000001" y="678.9879999999999" type="line"/>
      <point x="634.5224000000001" y="710.0" type="line"/>
      <point x="86.53960000000001" y="710.0" type="line"/>
      <point x="86.53960000000001" y="673.9879999999999" type="line"/>
      <point x="188.3332" y="673.9879999999999" type="line" smooth="yes"/>
      <point x="344.1888" y="673.9879999999999"/>
      <point x="426.55359999999996" y="606.402"/>
      <point x="426.55359999999996" y="496.13800000000003" type="curve" smooth="yes"/>
      <point x="426.55359999999996" y="379.966"/>
      <point x="347.4832" y="304.51800000000003"/>
      <point x="176.9532" y="304.51800000000003" type="curve" smooth="yes"/>
      <point x="86.53960000000001" y="304.51800000000003" type="line"/>
      <point x="86.53960000000001" y="276.82800000000003" type="line"/>
      <point x="436.91600000000005" y="0.0" type="line"/>
      <point x="547.8696" y="0.0" type="line"/>
      <point x="547.8696" y="30.782" type="line"/>
      <point x="531.3212000000001" y="30.782" type="line" smooth="yes"/>
      <point x="480.09639999999996" y="30.782"/>
      <point x="448.42" y="37.827999999999996"/>
      <point x="419.326" y="59.736000000000004" type="curve" smooth="yes"/>
      <point x="111.1384" y="296.104" type="line"/>
    </contour>
  </outline>
</glyph>
<glyph name="six.old" format="2">
  <advance width="650.1600000000001"/>
  <outline>
    <contour>
      <point x="513.3064" y="708.62" type="line"/>
      <point x="277.7496171038632" y="672.656296109284"/>
      <point x="104.2056" y="502.81600000000003"/>
      <point x="104.2056" y="287.598" type="curve" smooth="yes"/>
      <point x="104.2056" y="112.644"/>
      <point x="200.75734723934" y="21.38"/>
      <point x="337.6716" y="21.38" type="curve" smooth="yes"/>
      <point x="471.32195971226" y="21.38"/>
      <point x="553.8312000000001" y="116.23"/>
      <point x="553.8312000000001" y="233.724" type="curve" smooth="yes"/>
      <point x="553.8312000000001" y="345.08"/>
      <point x="479.26826880000004" y="427.252"/>
      <point x="351.67719999999997" y="427.252" type="curve" smooth="yes"/>
      <point x="238.54469015548162" y="427.252"/>
      <point x="142.0936" y="353.62"/>
      <point x="87.9884" y="265.758" type="curve"/>
      <point x="75.2312" y="290.13800000000003" type="line"/>
      <point x="124.0837935873528" y="376.670370908188"/>
      <point x="230.4501999999632" y="458.632"/>
      <point x="354.06080000000003" y="458.632" type="curve" smooth="yes"/>
      <point x="503.3266654027816" y="458.632"/>
      <point x="597.9352" y="366.046"/>
      <point x="597.9352" y="233.724" type="curve" smooth="yes"/>
      <point x="597.9352" y="101.448"/>
      <point x="487.4894481013336" y="-10.0"/>
      <point x="337.6716" y="-10.0" type="curve" smooth="yes"/>
      <point x="180.7276930232096" y="-10.0"/>
      <point x="59.770399999999995" y="101.54"/>
      <point x="59.770399999999995" y="287.368" type="curve" smooth="yes"/>
      <point x="59.770399999999995" y="503.368"/>
      <point x="241.085273317668" y="703.7880294647559"/>
      <point x="507.8832" y="740.0" type="curve"/>
    </contour>
  </outline>
</glyph>
<glyph name="slash.uc" format="2">
  <advance width="487.20599999999996"/>
  <outline>
    <contour>
      <point x="473.73240000000004" y="745.23" type="line"/>
      <point x="29.9984" y="-35.184" type="line"/>
      <point x="68.176" y="-35.184" type="line"/>
      <point x="511.91" y="745.23" type="line"/>
    </contour>
  </outline>
</glyph>
<glyph name="uni20B8.proportional" format="2">
  <advance width="690.438"/>
  <outline>
    <contour>
      <point x="324.9384" y="66.782" type="line" smooth="yes"/>
      <point x="324.9384" y="37.782000000000004"/>
      <point x="283.50120000000004" y="30.782"/>
      <point x="226.68120000000002" y="30.782" type="curve" smooth="yes"/>
      <point x="207.8384" y="30.782" type="line"/>
      <point x="207.8384" y="0.0" type="line"/>
      <point x="483.0596" y="0.0" type="line"/>
      <point x="483.0596" y="30.782" type="line"/>
      <point x="464.2996" y="30.782" type="line" smooth="yes"/>
      <point x="407.4796" y="30.782"/>
      <point x="365.4168" y="37.782000000000004"/>
      <point x="365.4168" y="66.782" type="curve" smooth="yes"/>
      <point x="365.4168" y="534.494" type="line"/>
      <point x="455.0136" y="534.494" type="line" smooth="yes"/>
      <point x="555.9728" y="534.494"/>
      <point x="597.9528" y="527.494"/>
      <point x="601.4128000000001" y="491.49399999999997" type="curve" smooth="yes"/>
      <point x="611.7928" y="393.49399999999997" type="line"/>
      <point x="638.538" y="393.49399999999997" type="line"/>
      <point x="638.538" y="565.598" type="line"/>
      <point x="52.36" y="565.598" type="line"/>
      <point x="52.36" y="393.49399999999997" type="line"/>
      <point x="79.188" y="393.49399999999997" type="line"/>
      <point x="89.568" y="491.49399999999997" type="line" smooth="yes"/>
      <point x="92.9452" y="527.494"/>
      <point x="135.008" y="534.494"/>
      <point x="235.8844" y="534.494" type="curve" smooth="yes"/>
      <point x="324.9384" y="534.494" type="line"/>
    </contour>
    <contour>
      <point x="52.36" y="710.0" type="line"/>
      <point x="52.36" y="678.9879999999999" type="line"/>
      <point x="638.538" y="678.9879999999999" type="line"/>
      <point x="638.538" y="710.0" type="line"/>
    </contour>
  </outline>
</glyph>
<glyph name="whitedownpointingtriangle" format="2">
  <advance width="748.96"/>
  <outline>
    <contour>
      <point x="684.76" y="464.0" type="line"/>
      <point x="63.74" y="464.0" type="line"/>
      <point x="373.98" y="91.0" type="line"/>
    </contour>
    <contour>
      <point x="586.4200000000001" y="414.0" type="line"/>
      <point x="578.04" y="430.0" type="line"/>
      <point x="368.06" y="175.0" type="line"/>
      <point x="380.9" y="175.0" type="line"/>
      <point x="170.46" y="430.0" type="line"/>
      <point x="162.54000000000002" y="414.0" type="line"/>
    </contour>
  </outline>
</glyph>
<glyph name="yen.proportional" format="2">
  <advance width="719.6912"/>
  <outline>
    <contour>
      <point x="100.1248" y="344.46" type="line"/>
      <point x="100.1248" y="313.448" type="line"/>
      <point x="619.778" y="313.448" type="line"/>
      <point x="619.778" y="344.46" type="line"/>
    </contour>
    <contour>
      <point x="100.1248" y="207.78199999999998" type="line"/>
      <point x="100.1248" y="176.77" type="line"/>
      <point x="619.778" y="176.77" type="line"/>
      <point x="619.778" y="207.78199999999998" type="line"/>
    </contour>
    <contour>
      <point x="17.465600000000002" y="710.0" type="line"/>
      <point x="17.465600000000002" y="679.218" type="line"/>
      <point x="23.4684" y="679.218" type="line" smooth="yes"/>
      <point x="63.4024" y="679.218"/>
      <point x="94.0392" y="680.126"/>
      <point x="112.7992" y="653.218" type="curve" smooth="yes"/>
      <point x="350.956" y="318.0" type="line"/>
      <point x="369.9468" y="318.0" type="line"/>
      <point x="597.1376" y="638.218" type="line" smooth="yes"/>
      <point x="622.8176" y="675.172"/>
      <point x="656.8316" y="679.218"/>
      <point x="696.8484" y="679.218" type="curve" smooth="yes"/>
      <point x="702.7683999999999" y="679.218" type="line"/>
      <point x="702.7683999999999" y="710.0" type="line"/>
      <point x="457.97040000000004" y="710.0" type="line"/>
      <point x="457.97040000000004" y="679.218" type="line"/>
      <point x="475.2704" y="679.218" type="line" smooth="yes"/>
      <point x="519.6644000000001" y="679.218"/>
      <point x="572.604" y="672.218"/>
      <point x="572.604" y="661.218" type="curve"/>
      <point x="343.1776" y="339.104" type="line"/>
      <point x="376.1216" y="348.644" type="line"/>
      <point x="149.3512" y="669.218" type="line"/>
      <point x="149.3512" y="676.218"/>
      <point x="204.75080000000003" y="679.218"/>
      <point x="246.6848" y="679.218" type="curve" smooth="yes"/>
      <point x="266.4448" y="679.218" type="line"/>
      <point x="266.4448" y="710.0" type="line"/>
    </contour>
    <contour>
      <point x="223.4236" y="0.0" type="line"/>
      <point x="498.64480000000003" y="0.0" type="line"/>
      <point x="498.64480000000003" y="30.782" type="line"/>
      <point x="480.5104" y="30.782" type="line" smooth="yes"/>
      <point x="423.1476" y="30.782"/>
      <point x="381.71040000000005" y="37.782000000000004"/>
      <point x="381.71040000000005" y="66.782" type="curve" smooth="yes"/>
      <point x="381.71040000000005" y="351.552" type="line"/>
      <point x="340.9836" y="351.552" type="line"/>
      <point x="340.9836" y="66.782" type="line" smooth="yes"/>
      <point x="340.9836" y="37.782000000000004"/>
      <point x="298.9208" y="30.782"/>
      <point x="242.1008" y="30.782" type="curve" smooth="yes"/>
      <point x="223.4236" y="30.782" type="line"/>
    </contour>
  </outline>
</glyph>
<glyph name="zero.old" format="2">
  <advance width="650.1600000000001"/>
  <outline>
    <contour>
      <point x="325.08000000000004" y="-11.046" type="curve" smooth="yes"/>
      <point x="488.10563636364634" y="-11.046"/>
      <point x="602.8092" y="104.95400000000001"/>
      <point x="602.8092" y="273.954" type="curve" smooth="yes"/>
      <point x="602.8092" y="442.0"/>
      <point x="488.10563636364634" y="558.0"/>
      <point x="325.08000000000004" y="558.0" type="curve" smooth="yes"/>
      <point x="162.0335401575416" y="558.0"/>
      <point x="47.3508" y="442.0"/>
      <point x="47.3508" y="273.954" type="curve" smooth="yes"/>
      <point x="47.3508" y="104.95400000000001"/>
      <point x="162.0335401575416" y="-11.046"/>
    </contour>
    <contour>
      <point x="325.08000000000004" y="20.242" type="curve" smooth="yes"/>
      <point x="176.4889433961608" y="20.242"/>
      <point x="91.4548" y="118.782"/>
      <point x="91.4548" y="273.954" type="curve" smooth="yes"/>
      <point x="91.4548" y="427.17199999999997"/>
      <point x="176.4889433961608" y="526.7579999999999"/>
      <point x="325.08000000000004" y="526.7579999999999" type="curve" smooth="yes"/>
      <point x="473.7050011833712" y="526.7579999999999"/>
      <point x="558.7052" y="427.17199999999997"/>
      <point x="558.7052" y="273.954" type="curve" smooth="yes"/>
      <point x="558.7052" y="117.782"/>
      <point x="473.7050011833712" y="20.242"/>
    </contour>
  </outline>
</glyph>
<glyph name="zero.slash" format="2">
  <advance width="650.1600000000001"/>
  <outline>
    <contour>
      <point x="124.6648" y="130.184" type="line"/>
      <point x="545.2616" y="450.528" type="line"/>
      <point x="531.038" y="478.77" type="line"/>
      <point x="107.524" y="155.426" type="line"/>
    </contour>
    <contour>
      <point x="325.08000000000004" y="-11.0" type="curve" smooth="yes"/>
      <point x="482.4148" y="-11.0"/>
      <point x="603.3888" y="121.77"/>
      <point x="603.3888" y="304.0" type="curve" smooth="yes"/>
      <point x="603.3888" y="486.23"/>
      <point x="482.4148" y="619.0"/>
      <point x="325.08000000000004" y="619.0" type="curve" smooth="yes"/>
      <point x="167.7452" y="619.0"/>
      <point x="46.7712" y="486.23"/>
      <point x="46.7712" y="304.0" type="curve" smooth="yes"/>
      <point x="46.7712" y="121.77"/>
      <point x="167.7452" y="-11.0"/>
    </contour>
    <contour>
      <point x="325.08000000000004" y="20.334" type="curve" smooth="yes"/>
      <point x="182.7792" y="20.334"/>
      <point x="90.7096" y="135.598"/>
      <point x="90.7096" y="304.0" type="curve" smooth="yes"/>
      <point x="90.7096" y="471.448"/>
      <point x="182.7792" y="587.712"/>
      <point x="325.08000000000004" y="587.712" type="curve" smooth="yes"/>
      <point x="467.3808" y="587.712"/>
      <point x="559.4504" y="471.448"/>
      <point x="559.4504" y="304.0" type="curve" smooth="yes"/>
      <point x="559.4504" y="134.598"/>
      <point x="467.3808" y="20.334"/>
    </contour>
  </outline>
</glyph>
<glyph name="zero.slashlin" format="2">
  <advance width="650.1600000000001"/>
  <outline>
    <contour>
      <point x="544.0372" y="549.804" type="line"/>
      <point x="94.5248" y="188.3" type="line"/>
      <point x="112.2084" y="159.242" type="line"/>
      <point x="557.718" y="517.746" type="line"/>
    </contour>
    <contour>
      <point x="325.08000000000004" y="-10.954" type="curve" smooth="yes"/>
      <point x="487.7092" y="-10.954"/>
      <point x="602.5608" y="128.506"/>
      <point x="602.5608" y="355.0" type="curve" smooth="yes"/>
      <point x="602.5608" y="581.54"/>
      <point x="487.7092" y="720.0"/>
      <point x="325.08000000000004" y="720.0" type="curve" smooth="yes"/>
      <point x="162.45080000000002" y="720.0"/>
      <point x="47.599199999999996" y="581.54"/>
      <point x="47.599199999999996" y="355.0" type="curve" smooth="yes"/>
      <point x="47.599199999999996" y="128.506"/>
      <point x="162.45080000000002" y="-10.954"/>
    </contour>
    <contour>
      <point x="325.08000000000004" y="20.426000000000002" type="curve" smooth="yes"/>
      <point x="176.77640000000002" y="20.426000000000002"/>
      <point x="91.5376" y="141.288"/>
      <point x="91.5376" y="355.0" type="curve" smooth="yes"/>
      <point x="91.5376" y="566.804"/>
      <point x="176.77640000000002" y="688.62"/>
      <point x="325.08000000000004" y="688.62" type="curve" smooth="yes"/>
      <point x="473.4664" y="688.62"/>
      <point x="558.6224" y="566.804"/>
      <point x="558.6224" y="355.0" type="curve" smooth="yes"/>
      <point x="558.6224" y="140.334"/>
      <point x="473.4664" y="20.426000000000002"/>
    </contour>
  </outline>
</glyph>
